<?xml version="1.0" encoding="UTF-8"?>
<svg id="Layer_1" xmlns="http://www.w3.org/2000/svg" version="1.1" viewBox="0 0 350.2 88.8">
  <!-- Generator: Adobe Illustrator 29.2.1, SVG Export Plug-In . SVG Version: 2.1.0 Build 116)  -->
  <defs>
    <style>
      .st0 {
        fill-rule: evenodd;
      }

      .st0, .st1 {
        fill: #2b4a66;
      }
    </style>
  </defs>
  <path class="st0" d="M54.1,19.5c.2.5-.1,2.2-.5,2.3-1-.4-.9-2.1.5-2.3h0ZM50.9,24.3h2.6c0-.1-.8-1.5-.8-1.5l-1.8,1.5h0ZM61.9,13.9c-1.4-.2-4.4.6-3.8,1.2.3.2,1.8.4,2.2.5-.5.4-3-.1-3.7-.4,1-.6,2-1.1,2.7-2.3,2.3.1,4.4.9,3.6,1.9-.2-.3-.5-.6-1.1-.7h0ZM58.4,12.5c.2,0,.3,0,.5.2-.3.4-1.8,2-2.3,1.8.4-.4,1.7-1.4,1.8-2h0ZM53.4,15.5c1.9-1,.9.6,2.4-.5-.1.6,0,1.7-.5,2.3-1.4-1.6-.3-1.4-1.9-.6,0-.4,0-.8,0-1.1h0ZM55.4,11.2l.3.5c.3.2.5,0,.9.3-.6.9-2-.1-1.2-.8h0ZM55.2,20.2c-.6-.6-.3-1.9-.4-2.1.2-.6,1.2-.1.4,2.1h0ZM55.4,22.3c-.1,1.9-1.1,1.1-1.5,0,.4-.1,1-.4,1.3-.7l.2.7h0ZM56.1,13.6c-.3,0-.5,1.2-1.1.9v-.8c-.4.3-1.1,1.2-1.8,1,.3-.6,1.2-1.7,1.9-1.7s1,.4,1.5.2c.8-.4.5-1.4,1-1,.1.8-.5,1.3-1.4,1.4h0ZM52.4,20.2c-.2,3.1-5.8,4.1-6,2.6,1.7.5,4.8-1.3,6-2.6h0ZM56.5,22.2c.1.7,2.3,1.8,2.9,1-.3.4-2.1-.2-2.9-1h0ZM52.3,16.3c.3-.2.5.4.2,1-.6,1.4-5,4.3-6.2,2.1,2.2,0,4.5-.8,5.9-3.1h0ZM54,17.1c.3-.5.4,2.1-1.7,2.3-.5-.4,1.1-1.5,1.7-2.3h0ZM48.1,15.9c.7,0,4.7.4,4-2.1-1.7.3-3.4.5-3.8-.5,1.9.6,4.2,0,4.8-.7-.7,0-2.1-1.3-1.3-2.7.2.9,1,2.1,2,2.3-.3-.6-.9-2.1-.6-2.3.5.4.8.5,1.1,1-.1.1-.2,1.3,0,1.8-.6.2-1.2.6-1.7,1.2,0,.5-.2.7-.1,1.4-.5,1.1-3.7,1.9-4.5.9h0ZM46.2,15c1.5.2,2.9.2,4.3,0-2.2,0-3.2-.5-3.2-2.3,1.5.2,3,0,4-.4-1.1-1.1-.8-2.2,0-3.4l1.1,1c0-.5,0-.8.3-1.1.3,0,1,.3,2,1.2.2-.6.6-1,1.3-1.1.5,1.1,1.2,2.1,2.3,2.8,1.5.5,4.5.5,5,1.7.7,1.7.2,2.3-1,2.8.6-1.4-1.7-2.2-2.3-1.2l1.4.3c.4,0-.2,1.2-1.1,1.2s-3.7.1-3.7-.1-.6,2.4-.1,4c.5,1.7,3.1,3,4,1.5.6.7-.6,2.3-2,2.2-1,.3-2.8-.7-2.6-1.2,0,.1-.5,1.4-.9,1.5-.4.3-2.1-1.5-2.3-2.6-.4.9-2.9,2.8-4.7,2.4-1,0-2.9-.4-3.1-2.6.3,1.1,5.6,0,5.9-1.8-1.1,1.1-2.4,1.1-3,1.1-1.6.4-3.1-1.9-2.1-2.6,0,1.1,4.6,0,4.6-1.2-1.8.4-3.2-.2-4.2-2.1h0ZM34.4,20.1c-.2.1-.4.3-.7.1-.2-.4-.1-1.2,0-1.2s.5-.4.6-.1c.1.2,0,1,0,1.2h0ZM35.3,18c-.9.3-.9.8-.6,1.6.3.3.8,0,1.1-.3,0-1-.2-1.2-.5-1.3h0ZM36.6,16.8c-.4.2-.5.5-.5.7s.1.6.3,1.2c.2.2.4.2.5,0,.2-.2.4-.4.5-.7,0-.2-.1-.5-.2-.7,0-.2,0-.4,0-.4,0,0-.1,0-.2,0h-.4ZM35.7,15.1c-.7,1-.2,1,.1,1.8.3.3.9-.5,1.2-.9-.2-.6-.4-1-.7-1.3,0,0-.5,0-.6.4h0ZM35.2,16.2c-.9.4-.9.8-.6,1.6.3.3.7.1,1.1-.3-.2-.9-.2-1.1-.4-1.3h0ZM34.1,17c-.9.4-1,.7-.6,1.5.3.3.6.2,1-.4,0-1-.2-1-.3-1.2h0ZM23.3,13.2c-1.9,1-1.4,3.6.9,3.2l-.5-.8c0-.4.5-.9,1-.8-.2-.7,0-1.5.4-2.4-.3,0-1.4.6-1.8.8h0ZM23.6,13.9c.2-.1.6-.3.7-.4-.2,1.2-.7,1.3-1.1,1.9-.3-.4,0-1.1.4-1.5h0ZM27.7,14.4c-.4-.7-1.5-.1-1.7-.3-.1-.1,0-1.2,1.3-1.7.4,1.7,1.3,2.1,1.5,3-.3.9-.3,1.1-2,.7.1,0,.6-.2.8-.3.2-.4.2-1,.1-1.4h0ZM24.4,16.4c2,.4,4.3,1.1,4.7.4,1.6-1.5-.8-2.7-1.2-5.4-1.1.2-2.2,1.1-2.6,2-.2.5-.2,1.1,0,1.5.5,0,1.4-.1,1.7.2-.4.5-2,.7-2.6,1.4h0ZM31.7,12.2c-.4-.4-1.3-.1-1.2.3,0,2.4,2.6.5,1.2-.3h0ZM33.5,14.7c-.3.3-1.2,1.3-1.4,1.9.5,1.8.4,3.2.4,4.2h-.6c0-1,0-2.4-.3-3.1-.4-.1-.9-.5-.6-.9,1.1-1.8-1.5-3.2-1.7-5.5h1.4c.4-.3.8-.4,1-.9.6-.2,1.8.5,1.3,1.1.9,1,2.2,1.9.6,3.2h0ZM33.1,20.9c.3-2.1-.4-3.5-.3-4.1.2-.2.8-1.7,1.4-.1.3-.2.5-.6.9-1-.2-.3-.4-.5-.6-.8.3-.2.5.2.7.3.3.2.7-1,.7-1,0-.7-1.5-1.7-2-2.6-.2-.2-.1-.5,0-.9-.2-.6-2-1.8-2.8-1.3-1.4,1.6-2.2,0-2.8,1.2-.1,2,1.3,3.5,1.9,5.1,0,.3-.5,1.2-.5,1.5.3.5,1.1.7,1.2,1v2.6c0,.5.3.9.6.9h1.3c.2,0,.3-.3.3-.8h0ZM35.3,19.8c-.9.3-.7.9-.5,1.7.3.3,1.2-.2,1.5-.5,0-.5-.1-1.2-.2-1.2,0,0-.7.1-.9,0h0ZM34.3,21.8c-.3.1-.5.4-.9.1-.2-.4-.2-1.2,0-1.2s.6-.3.8-.1c.2.2.1,1,0,1.2h0ZM36.3,24.3c-.2,0-1.4.2-1.7,0-.2-.4,0-2,0-2.2.2,0,.4-.3.7-.2.5.6,1,2.3,1,2.4h0ZM35.2,23.7c.1-.4-.2-.8,0-1.1,0,.2.6.9.4,1.4-.3,0-.4-.2-.4-.3h0ZM31.9,24.2l1.1-2.1h1.2c0,.6,0,1.8-.2,2.2-.6.3-2.2.2-2.1-.2h0ZM33,23.7c.2-.3.4-.6.6-1,.2-.3,0,.5,0,1.2-.6,0-.5,0-.5-.2h0ZM31.4,24.2c-.2.2-1.9.2-2.1,0,.2-.3,1.4-1.7,2.1-2.3.5,0,1.2,0,1.3.2,0,.4-1.1,1.9-1.2,2.1h0ZM30.6,23.7c.3-.4.5-.9,1-1.2.3,0,.2.5-.4,1.3-.6,0-.6.1-.6,0h0ZM28.6,24.3c-.5,0-1.8-.1-2.4-.5.9-.7,3.4-2.3,3.8-2.4.4-.2.9.3,1.1.6-.1.3-2,2.1-2.4,2.4h0ZM27.9,23.5c.6-.6,1.3-1.1,2-1.4.2.3-.9,1.1-1.4,1.5-.4,0-.6,0-.6-.1h0ZM38.7,24.3c-.3-.3-1.5-2.5-1.8-3.1,0-.5,1-.6,1.2-.7.5.4,2,2.9,2.1,3.6-.4.3-.9.4-1.5.3h0ZM38,22.2c0-.4-.5-.9-.3-1.2.3-.1,1.2,1.8,1.4,2.8-.4.6-.6-1-1.1-1.5h0ZM37.1,18.8c-.9.4-.6.8-.4,1.7.3.3.6,0,1-.4,0-.4-.1-1.1-.1-1.1,0-.1-.4-.1-.5-.1h0ZM38.2,24.1c-.2.4-1,.3-1.4.1-.3-.5-1-2-1.1-2.5.3-.3.5-.4.9-.5.6,1,1.1,1.9,1.5,2.8h0ZM36.7,23.2c0-.4-.4-1-.2-1.3,0,.2,1.1,1.4.9,2-.4.2-.6-.6-.6-.7h0ZM45.8,1.5h.7l.5,5.2h-.6v-1.3h-.7l-.2,1.3h-.6l.9-5.2h0ZM46.3,4.6v-1.7c-.1,0-.1-.8-.1-.8h0v.8c-.1,0-.4,1.7-.4,1.7h.5ZM47.2,1.5h.5v3.6c0,.4,0,.6,0,.7s.2.2.3.2h.2c0,0,.1-.2.2-.3,0-.1,0-.3,0-.5V1.6h.6v3.7c-.1.5-.2,1-.3,1.2-.2.2-.4.4-.7.4s-.6-.1-.7-.4c-.2-.2-.2-.6-.2-1.2V1.6h.1ZM51.1,2.4h-.6l-.2,4.3h-.5l.2-4.3h-.6v-.8h1.8v.9h0ZM52.9,4.7c0,.5,0,.9-.1,1.2,0,.3-.1.5-.3.7-.1.2-.4.3-.6.3-.4,0-.7-.2-.7-.6-.1-.4-.2-.9-.1-1.6v-.7h0v-1c0-.2,0-.4.1-.6,0-.2,0-.3.1-.4.1-.3.2-.4.4-.5.1,0,.3-.1.4-.1.3,0,.5.2.6.4.1.3.2.5.2.9v2h0ZM51.6,3.2v1.9c-.1.6,0,1,.3,1s.4-.3.4-1v-1.8c0-.2,0-.4,0-.7,0-.2-.2-.4-.3-.4s-.2,0-.3.2c0,.2-.1.4-.1.7h0ZM53.5,1.7h.6l.4,2.6.2,1.5c0-.8,0-1.4,0-1.8,0-.4,0-.7,0-1.1v-1.1h.6l-.4,5.2h-.5l-.4-2.6-.2-1.4c0,.5,0,1,0,1.4v2.4h-.6l.4-5.2h0ZM57.4,5.2c0,.5-.1.9-.2,1.2,0,.3-.2.5-.3.7s-.4.3-.6.2c-.4,0-.6-.3-.7-.6s0-.9,0-1.6h0c0-.1.1-.7.1-.7h0v-.4c0-.2,0-.3,0-.5,0-.2.1-.4.1-.6s.1-.3.2-.4c.1-.2.3-.4.4-.4s.3-.1.4,0c.3,0,.5.2.6.4.1.3.2.6.2.9s0,.7,0,1.1v.8h-.1.1ZM56.2,3.6l-.2,1.9c0,.6,0,1,.3,1,.3,0,.4-.3.5-.9l.2-1.8v-.7c0-.3-.1-.4-.3-.4-.1,0-.3,0-.3.2,0,.2-.2.4-.2.7h0ZM58.2,2.1h.9v3.7-.9c.1,0,.7-2.6.7-2.6h.9c0,.1-.6,5.2-.6,5.2h-.5c0,0,.3-3,.3-3l.3-1.8h0l-1.1,4.6h-.3V2.7h0l-.2,1.9-.3,2.8h-.5c0,0,.6-5.2.6-5.2h0ZM62.1,2.6h.7c0,.1-.2,5.3-.2,5.3h-.6v-1.4c0,0-.6-.1-.6-.1l-.4,1.2h-.6c0,0,1.5-5.1,1.5-5.1h0ZM62.1,5.7v-1.7c.1,0,.2-.8.2-.8h0l-.2.8-.5,1.7h.5ZM65.9,3c1,0,1.9.3,1.7,1.2l-.5,3.5c-.1.7-1.1.6-2,.3l.9-5h0ZM66.4,3.6c.4,0,.6.2.6.5l-.5,3.3c-.1.3-.4.4-.8.3,0,0,.3-1.6.3-1.7h.4c0,0,.1-.6.1-.6h-.4c0,0,.2-1.9.2-1.9h.1ZM70.4,3.9h.9c0,.1-.1,2.8-.1,2.8v.9c0,0,.1-.9.1-.9l.7-2.6h.9c0,.1-.8,5.2-.8,5.2h-.5c0-.1.5-3,.5-3l.3-1.8h0l-1.3,4.6h-.3v-4.8h.1l-.3,1.9-.4,2.7h-.5c0,0,.8-5.2.8-5.2h0ZM73.4,4.4l1.5.3v.8c-.1,0-1.1-.2-1.1-.2l-.2,1.3.9.2v.7c-.1,0-1-.2-1-.2l-.3,1.6,1,.2v.7c-.1,0-1.6-.3-1.6-.3l.9-5.1h0ZM75.4,7.3h0v-2.6c0,0,.5.1.5.1v1.9h0c0-.1.1-.3.2-.4l.6-1.3h.5c0,.1-1.2,2.4-1.2,2.4v2.7c.1,0-.5-.1-.5-.1v-2c0,.2-.1.4-.2.5l-.6,1.2h-.5c0-.1,1.2-2.5,1.2-2.5h0ZM77.5,5.2l.5.2-1.3,5-.6-.2,1.3-5h0ZM79.2,7.3c.2-.6.2-.9,0-1-.3-.1-.5.2-.6.8l-.5,1.7c-.1.4-.2.6-.2.9s.1.3.2.3.3,0,.3-.2c.1-.2.2-.5.3-.9l.5.2c-.1.3-.2.6-.3.9-.1.2-.3.5-.4.6s-.4.2-.7.2c-.3,0-.4-.2-.5-.4-.1-.2-.2-.4-.1-.7,0-.3.1-.7.3-1.2l.2-.9c.2-.5.3-1,.5-1.3.1-.3.3-.5.5-.6.2-.1.4-.2.6-.1.3.1.5.3.6.6,0,.3,0,.8-.2,1.3l-.5-.2h0ZM81.4,9.3c-.1.5-.3.9-.4,1.1-.1.3-.3.5-.5.6s-.4.2-.7.1c-.4-.1-.6-.4-.6-.7s.1-.9.3-1.5h0c0-.1.2-.7.2-.7h0c0-.2,0-.3.1-.4,0-.1.1-.3.2-.5.1-.2.2-.4.3-.5,0-.2.2-.3.2-.4.2-.2.3-.3.5-.4h.4c.3,0,.4.3.5.5,0,.3,0,.6,0,.9,0,.3-.2.7-.3,1.1l-.3.8h0ZM80.6,7.6l-.5,1.8c-.2.6-.2,1,.1,1.1.2,0,.4-.2.6-.8l.5-1.7c0-.2.1-.5.1-.7s0-.4-.2-.5c-.1,0-.2,0-.4.2s-.2.4-.3.7h0ZM4.4,7.1l.5-.2,1.3,3.4c.1.3.2.5.4.6.1,0,.2.1.4,0,0,0,.2,0,.2-.1,0,0,0-.2,0-.3,0-.1,0-.3-.1-.5l-1.3-3.4.5-.2,1.3,3.4c.2.5.3,1,.2,1.2,0,.3-.3.5-.6.6-.3.1-.6.1-.9,0s-.5-.5-.6-1.1l-1.3-3.5h0ZM6.8,6.2l.5-.2,1.3,2.2.7,1.3c-.3-.7-.5-1.3-.6-1.7s-.2-.7-.3-1.1l-.4-1.1.5-.2,1.5,4.9-.5.2-1.3-2.2-.6-1.2c.2.4.3.9.5,1.3s.3.8.4,1.1l.4,1.2-.5.2-1.5-4.9h0ZM9,5.5l.6-.2,1.5,5-.6.2-1.5-5h0ZM12.2,4.7l1.5-.3.2.7-1,.2.3,1.3.9-.2.2.7-.9.2.3,1.6,1-.2.2.7-1.5.3-1-5.1h0ZM12.1,9.5l-.2-.9-.6-3.8h.6c0-.1.6,5.1.6,5.1l-.7.2-1.8-4.8h.5c0-.1,1.3,3.5,1.3,3.5l.2.9h0ZM14,4.4l1-.2c.5-.1.8.2,1,1,0,.4.1.7,0,.9,0,.3-.1.4-.3.5.1,0,.2,0,.3.1,0,0,.1.2.2.3,0,.1,0,.2.1.3,0,.1,0,.3,0,.4,0,.3.1.6.2.9,0,.3.1.4.2.4h0c0,.1-.5.2-.5.2,0-.1-.1-.3-.1-.5s-.1-.4-.1-.6v-.3c-.1-.2-.2-.4-.2-.5,0-.1-.2-.2-.4-.1h-.3c0,0,.4,2.2.4,2.2h-.5c0,.1-.9-5-.9-5h0ZM15,5h-.4c0,0,.2,1.4.2,1.4h.4c.1-.1.2-.2.2-.3v-.5c0-.2,0-.4-.2-.5,0-.1-.2-.2-.3-.1h0ZM17.3,5.4c-.1-.6-.3-.9-.5-.8,0,0-.2.1-.2.2v.4c0,.2.2.4.3.5s.4.3.5.4c.2.2.4.3.5.5.2.2.3.4.3.6.1.5.2,1,0,1.3-.1.3-.3.5-.5.5-.3,0-.5,0-.8-.2-.2-.2-.4-.6-.5-1.2,0-.2,0-.3,0-.4h.5c0,0,0,0,0,0h0v.2c.1.6.3.9.5.8,0,0,.1,0,.2,0,0,0,0-.1.1-.2v-.4c0-.3-.2-.5-.4-.7-.2-.1-.3-.3-.4-.4-.2-.1-.3-.3-.4-.4-.1-.1-.2-.3-.3-.4-.1-.2-.2-.4-.2-.6-.1-.8,0-1.3.5-1.4.6-.2,1,.3,1.2,1.3h0c0,.1-.5.2-.5.2h0ZM18,3.8h.6c0-.1.9,5,.9,5h-.6c0,.1-.9-5-.9-5h0ZM18.9,3.6l1.1-.2c.3,0,.5.1.7.5s.4,1.1.5,2c0,.4.1.7.1,1v.7c0,.3,0,.5-.2.6-.1.2-.2.3-.4.3l-1.1.2-.7-5.1h0ZM19.6,4.3l.5,3.6h.3c.2,0,.3-.2.3-.3,0-.2,0-.4,0-.6,0-.3,0-.6-.1-1.1-.1-.6-.2-1.1-.3-1.3,0-.3-.2-.4-.4-.4h-.4ZM21.6,3.2h.7c0-.1,1.3,4.9,1.3,4.9h-.6c0,.1-.3-1.2-.3-1.2h-.6v1.4h-.6c0,.1,0-5.1,0-5.1h.1ZM22.5,6.2l-.4-1.7-.2-.8h0v2.6h.5ZM23.2,3l1.1-.2c.3,0,.5.1.7.5.2.4.3,1.1.5,2,0,.4.1.7.1,1v.7c0,.2,0,.4-.2.6,0,.2-.2.3-.4.3l-1.1.2-.7-5.1h0ZM23.8,3.7l.5,3.6h.3c.2,0,.2-.2.3-.3,0-.1,0-.3,0-.6,0-.3,0-.6-.1-1.1-.1-.6-.2-1.1-.3-1.3-.1-.3-.2-.4-.4-.4h-.4ZM27.4,2.4h.6c0,0,.9,2.3.9,2.3l.5,1.4c-.2-.8-.2-1.4-.3-1.7,0-.4-.1-.7-.2-1.1l-.2-1.1h.5c0,0,.6,5.1.6,5.1h-.5c0,0-.9-2.3-.9-2.3l-.4-1.3c0,.5.2,1,.2,1.4,0,.5.2.9.2,1.1l.2,1.3h-.5c0,0-.6-5.1-.6-5.1h0ZM30.2,2.1h.7c0-.1,1.3,4.9,1.3,4.9h-.6c0,0-.3-1.2-.3-1.2h-.6v1.4h-.5c0,.1,0-5.1,0-5.1h0ZM31.1,5.1l-.4-1.7v-.8h-.1v.8c0,0,0,1.8,0,1.8h.5,0ZM33.2,3.5c0-.6-.2-.9-.4-.9-.3,0-.4.3-.3,1v1.8c.1.4.2.6.3.8s.2.3.3.3.2-.1.3-.3v-.9h.6v.9c0,.3-.1.5-.2.7-.1.3-.3.4-.6.4s-.4,0-.6-.1c-.2-.1-.3-.4-.4-.6-.1-.3-.2-.7-.2-1.2v-.9c-.1-.6-.1-1.1-.1-1.4s.1-.6.3-.7c.1-.2.3-.3.5-.3.4,0,.6.1.7.4.2.3.3.7.3,1.3h-.5,0ZM33.8,1.7h.6l.3,5.1h-.6l-.3-5.1h0ZM36.9,4.7v1.2c0,.3-.1.5-.2.7s-.3.3-.6.3c-.4,0-.7-.2-.8-.5s-.2-.9-.3-1.5v-.7h0v-1c0-.2,0-.4,0-.6,0-.2,0-.3,0-.4.1-.3.2-.4.3-.5.1,0,.3-.1.4-.1.3,0,.5.1.6.3.1.2.3.5.3.9s.1.7.1,1.1v.9h0ZM35.5,3.4v1.9c.1.6.3,1,.5,1s.4-.3.3-1v-1.8c0-.2-.1-.4-.2-.7s-.2-.4-.3-.4-.2.1-.3.3-.1.4,0,.7h0ZM37.1,1.5h.6l.6,2.4.3,1.5c0-.8-.1-1.4-.1-1.8s0-.7,0-1.1v-1.1h.5v5.2c.1,0-.4,0-.4,0l-.6-2.4-.3-1.4c0,.5,0,1,.1,1.4,0,.5,0,.9,0,1.1v1.3h-.5V1.5h-.2ZM40,1.4h.7l.6,5.1h-.6v-1.3h-.7l-.2,1.3h-.6l.7-5.2h0ZM40.5,4.5l-.2-1.7v-.8h0v.8l-.3,1.7h.5,0ZM41.4,1.4h.5v4.4h.9v.7h-1.4V1.4h0ZM69.3,16.6c-2.7-.3-5-2-.7-3.2,1.3,1.9,2.9,2,10.6,1.4,1.4-.1,3.6-.4,5.4,1.2-.7-.1-2.2-.5-2.9-.4-1.1-.2-2.8.2-3.2.5-4.7-1-8.4-.1-9.2.5h0ZM68.6,10.2c2.8,0,11.2,2.3,12.9,2.8-.5,0-.6.4-1.7.1-5.9-.9-11.3-1.9-13.9.6.4-.8,1.1-2.7,2.7-3.6h0ZM17.8,10.4c.8.6,2.2,2.4,2.8,3.5-1.7-.9-3.2-1.2-3.9-1.2-1.2-.1-9.1,1.4-10.9,1.1,2.4-1.7,10.2-3,12.1-3.4h0ZM16,16.8c-2.6-.7-6.1.2-6.7.2-.5-.3-3.8-1-5.3-.8,1.4-1.2,7.2.5,11-.8.9-.3,2.4-1.2,2.8-1.5s1.8.3,2.7,1.1c-1.5,1.9-3.4,1.8-4.6,1.8h0ZM2.5,7.5c0-1.7,5.3-2.6,10.1-3.6C33.4.5,48-.6,71.9,3.1c2.7.8,11.4,2.5,11.9,3.8.1.8-.3,2.3-1.1,3-.6.5-.6,1.7-.9,2.5-2-.9-9.6-2.5-15.9-3.5-15.9-2.4-35.5-1.3-49,.7-4.6.6-10.6,2.7-12,3.7-.2-1.1-.7-2.8-.7-2.8-.5-1.2-1.6-1.6-1.7-3.1h0ZM67.6,9.9c-1.8,2-2.6,3.3-2.6,5.6.4.6,2,1.9,3.7,1.9-.6,1.3.2,2.2,1.1,2.8-1.2,2-3,2.4-4.5,3.5.3,0,.7.5,1.3.7,1.9,0,5.6-2.6,5.7-5-.5,0-1.1-.2-1.5-.9,1.1-2.4,4.6.8.7,3.8-.3.3-3.2,2-4.2,2.4,0,.6,1,1.2,1.2,1.2.5,0,.2-.6.4-.6s.5.2.6.1c0-.3,0-.6.1-.9.2,0,.6.8,1,.5.3-.3-.5-1-.1-1s.9.4,1,.4c.2-.3-.1-.5-.2-.8.3-.3.6.3,1,.3.4-.2-.3-.6,0-.9.4.2.7.7,1,.5.4-.2-.5-1.2-.2-1.2s.7.4,1,.2c.3-.2-.7-.6-.4-.6.4.3.9.4,1.5.4.2-.3-.9-.9-.6-1.1.3-.3,1.3.9,1.7.6.3-.5-1.1-1.1-1-1.3.4-.2,1.3.6,1.8.5.4-.5-1.5-1.1-1.3-1.3,0-.2,1.7.9,2,.6.4-.3-1.7-1.2-1.5-1.3,0-.1,2,1.3,2.6.8.6-.5-2.2-1.1-1.9-1.4.1-.1,2.3,1.1,2.7.9.2-.5-1.3-.8-2-1.4,1.2-.4,2.9,1.1,2.6,2.2-.2.5-3.1,1.7-3.3,1.8-2.5,1.3-4,4-8.1,4.4l.2,1c3.8-.2,6.9-2.6,9.7-4,3.4-1.9,5.2-.6,5.5-2.5,0-1.2-3.2-3.7-4.4-4,.9-.4,2.3-.5,3.4-.2-.3,1.3.4,3.3,1.4,3.4,0-1,1.5-2.5.9-3.7-.6-2.4-4.8-1.9-9.4-1.9s-5.8.6-6.7-1.2c8.1-.4,11.9,2.2,13.3,0,.3-.7,0-1.4.3-2,.7-1.1,2-2.6,1.8-4,.2-2-14-5-20.3-5.7-3-.5-7.4-.9-8.8-.9-4.2-.3-8.4-.3-11-.4-11.7.2-23.1,1-33.7,3.4-4.4,1.1-8.7,2-8.9,3.6-.8,3.1,2.2,2.4,2,6.2.4,3.2,10.1-.4,13,.2-3.5,3.2-9.7.9-11.6,1.6-5.1.7-2.6,4.2-2.7,5.7,1.1-.3,2.7-1.4,2.2-3.8,1-.1,2.2.2,3.5.7-1.3.9-3.8,1.7-2.9,3.4.9,1,.2-.3,10.1,4,.3-.1,2.9,2,3.7,1.2-.1-1.4-4.1-1.5-6.3-4.2-1.3-2.4,1.1-4.1,2-2.7,0,.4-.5.9-.8,1.7-.1,1.9,5.1,4.5,8,4.7.4-.5,1.4-1.4,1.9-1.9-1.4-.4-8.6-1.7-6.2-4.3.4-.4,1.3-1.4,1.1-2.1,1.2-.8,3.8-1.9,2.2-5,0,0-1.1-1.1-1.6-2.1.7-.5,9.7-1.5,14.9-1.8,1.3,0,6.4,0,8.6-.2,2.7.2,7.8.1,11.4.2,4.5.4,8.3.7,13.3,1.3h0ZM48.9,37.7c-.5-.1-1.8.2-4.1-.6-.5-.2-1.4.4-1.5.7-.2-.8-1.7-.4-2.1-.5-.5-.5-.5-1.1-.5-1.6s-1-.2-1.5,0c.5-1,.3-2,.3-2.5-1.9-.4-1,1.3-2.4,1.2-1.4-.6-1.3,0-1.3-2.7-.2,0-.7-.3-1-.7-.3-.5-1.1-.6-1.3-.5,0,0-1.2-.4-1.4-.5h25v18.8c0,5.5-8.5,14.5-14.5,16.6-5.7-2-12.7-10-12.6-16.7v-17.5c.7.9.2,1,.2,1.5.8.2,1,1,1.5,1.2.3,0,.4-.3.2-.6-.5-.7-.7-2.1-1.1-2.8,1,.7,1.1,2.7,2.4,4,.6,1.5,1,1.5,4.1,1.4,0,.4-.3,1,1.5,1,.5.4,1.7.8,2.1,1.5.6,0,.6-.6,2.1.3-.5,1.8-1.7,2.6-1.7,3-.2,1.3-.6,1.9,1.2,4-.2,1.7.9,2.6,1.7,2.6-.9,2.1-.7,4.5-1.4,6.4-.1.2-.2,2.6-.5,2.9.1,6.8,3.6,6.7,2.8,1.9.3-.6,1.1-.5,1.2-1.2.3-1.5,1-1.6,1.4-2,0-.3-.5-.5-.7-.5.3,0,1.3-.2,1.7-.3.5-.6,3.5-2.7,4.4-4.4,1-.7,2-.5,2.7-1.3.5-.6.1-2.8.7-3.1l.3-1.6c-.6-2.9-2.7-3.9-3.5-3.9-.9.4-1.7,0-1.6-.8.2-1.6-1.5-1.1-2.8-2.7h-.1ZM29.1,29.2h28.5v20c-.2,4.5-6.6,13.4-15.2,16.9-7.9-3.1-13.3-11.5-13.3-17.1v-19.7h0ZM23.7,24.7h38.7l.3,23.5c-.7,8.9-9,18.2-20,23-13.1-4.4-19.3-16.1-18.8-23.8l-.2-22.7h0ZM24.6,25.5h37.2v22.6c0,9.4-10.5,18.8-19.1,22.4-10-3.2-18.2-13.4-18-22.1,0,0,0-22.8,0-22.8h0ZM12.1,67.5c-.6.2-1.1,2.2-2,2.2-.2.2,0-.4-.1-.9-.3-.4-1.2-.2-1.5-1.3,1.4-.1,2.9-1.5,3.6-.9.1.3.1.5,0,.8h0ZM11.8,64.9c2.9.2,1.3,2.3,1.5,3-.1,0-.4,0-.5-.1.4-.3.4-2-.5-2.1-.6-.1-2.6.5-3.1.9-.6.2-1,.4-1.6-.2-.2,0-.2-.5.1-.7-.1,1,.9.6.6.5.2-.3.3-1,.1-1s-.6.1-.6,0c-.6,0,.8-1,1.5-1s-.2.3-.4.5-.3.5.2.5-.8,1.1-.4,1.1c1.2,0,1.1-.6,1.5-1,.7-.4,1.5-.5,1.5-.5h0ZM7.5,83.4c-.5.3-1.1-.4-1.5-.7.5-1,1.2-1.2,1.7-.2l-.2.9h0ZM2.4,65.8c.3-.5.9-.6,1.4-.5,0,.4.2,1-.1,1.3-.5,0-1-.4-1.4-.8h0ZM47.6,86.2c.4.5,2,1.4,2.4,1.5-1.9,0-2.4-1.2-3.8-1.3-.3,0,.9,1.5.5,1.5,0,.2-1-.8-.7-.6-1.2-1.7-1.9-2-3.7-1.9l.4-.8c2.5-.5,5.7,2.1,4.8,1.7h0ZM36.5,79c.4-.2.8-.4.6-1.9,1.3.2,4,2.8,4.3,3.4-.4.3-1.5-1-3.9-.5-.7.4-4.4,0-3.3-1.9,1.1-.6.7,2,2.3.8h0ZM39.9,84.5c-1.7-2.4-5.4-1.5-6.8-4.6-.2-.3-.4-.4-.5-.4.4,4.3,5.6,2.6,5.5,5.6-.2.7-.3,1.8-.7,2.5-.8-.9.4-4.1-1.1-3.5.6,3.7-2.4,2.9-2.4,2.9,2.6-2.1,1.4-2.8-.7-5.1-.4-.6-.8-1.6-1-2.6,0-2.2,2.6-4,3.9-2.1v.6c-1.1-1.5-3-1.1-3.2,1,0,.5.7,1.6,2.1,1.8.5.4,2.3.3,3.9,0,3.1.2,2.7,2,3.9,2.4.4.1.9,0,1.1.1.5.5-2,.5-2.4.4.1,1.3-1.1,2.8-2.1,1.8,1.2,0,1.5-1.4,1.5-1.8.1-2.2-3.7-2.9-5.1-2.3.1.2,0,.5.4.6.7.3,1.5,0,2.3.3,1.5,1,1.8,1.8,1.1,2.3h0ZM76.6,69.3c1.2-.6,2.1-1.4,3.5-2.8,2.9-3.2,6.3.1,3.3,2.4-1.1.7-3.4,1.7-6,1.6-.4,0-1.9.2-2.5,0-.5-.2-.3-.8,0-.9.3-.2,1,0,1.8-.3h0ZM66,77.3c-.6,0-1.3,0-1.5-.2-.5-2.1,1.7-6.8,4.8-7.6,1-.3,2.8-1.6,4.8-.3-.6,2,0,2.4.8,2.2.7,2.3-7.3,3.2-8.9,6h0ZM70.5,78.8c.7-.2,4.8-1.4,5.6-1.1,3.7-.6,8.6,6.1-.6,5.5-1.9.1-5.1-2.6-8.3-2.3-1.1-.4-.3-1.6.2-1.7l2.9-.4h0ZM55.4,84.2c-1.1-.3-2.2-.4-2.9-.3-.8-.7-.5-2.5,3-2.5-.3.3.4,1.5,1,.8,0,0,1-.9-.2-1.1,1.4-.5,9.5-4.3,10.1-2.4-.4,1.1-.7,3,1.3,2.9.5.7-2.2,2.8-4.1,3.2-1.8.4-5.1.5-7.3-.7.2-.3.2-.9.3-.9-.5-.5-1.3-.1-1.3,1h0ZM12,73.2c-.2.2-.5-.5-.8-1.3-.1-.3.1-.5,0-.8,0-.3-.6-.2-.3-.7.7-1.1.9-2.4,2.3-1.7.3,0,.6-.1.7-.5-.1-2.1.8.3,2,1.4.6.2.9.6,0,.9-1.2.7-3.5,2.7-3.9,2.7h0ZM29.9,85.2c-1.7.4-7.9,1-8.3-2.9s3.4-3.2,4.2-3.4c1,0,4.9.9,5.5,1.1.3.7-.2,1.1,1.8,3.4.3.4-2.8,1.8-3.2,1.8h0ZM22.9,78.6c-.4,0-1,.8-1.5,1.1-.9.1-2.5-.5-2.9-1.9.1-.3.6-.9.3-1.4-.2-.2-.8.2-1.2.7-.1-.1-.3-.4-.7-.6-.2-.3.2-.6,0-1.1-.4,0-.6.4-.9.6-.4.2-.9.1-1.3-.3v-1c-1.2.3-1.8,3-2.3-.5,1.5-1.7,4.3-2.8,5.8-4.2-.2,0,3.5-3.1,3.2-3.1.5.3,1.2.7,1.2,1.2,1.9.9,2.8,2.2,4.6,4.3,4,.6,3.8,1.8,7.3,3.3-1.3.5-3.3,1.3-3.1,3.4-.6-.2-1.5-.4-2.2-.7-.2-.4-.4-1.3-1-1.8-.3.2-.4.7-.3,1.5,0,.3-.4-.1-1.2,0-.2,0-.3-1.1-.5-1.1-.5,0-.5,1-.5,1.1-1,.4-1.2.2-2,.2.1-.5-.1-1-.6-1.4-.6.7-.2,1.8-.2,1.8h.1ZM45.2,83.9c.4-1.5-.8-.9-1.5-1.4,1.8-.6,3.6-2.4,5.6-2,4.1,1.1,1,1.9,2.1,4.4-1.4,1.9-2.9,1-4.2,0,.3-.9-.6-1.3-1.3-.7-.4,0-.5-.2-.7-.2h0ZM39.8,74.1c-.7.7.7,1.7,1,1.3.2-.2.1-.6,0-.9,1,.5,3,.6,4,.4.5.1,2.5-.7,3-1,1.9.5,2.5,1.4,4.3,2.1,0,.3,0,2.5-1.5,3.7-2.6-1.2-5.5,1.1-6.9,1.5-2.5-3.3-4.4-4.2-6.4-5.4-.9-.5-3.9-2-5.2-2.8-.2-.4-.3-1.5-.3-2.2-.6,0-.7.4-.5,1.3-.2.4-.4.2-.7-.2-.3-.3-.3-.1-.5-1.2-.7-.3-.7.6-.7.9-.5,0-1,0-1.2-.2-.4-.4.5-.3.6-1.4.6-.5,4.5-.7,5.2-.4,1.9,2.4,3.9,3.5,6.1,4.4h0ZM54.6,78.7c-.5.7-1.2,1.7-1.8,2.1-.4.2-.7-.3-1.5-.8.2,0,.7-.9.8-.9,2.1-8.4,5.2-8.7,6.7-8.4,0,.3,0,.9.4.7.2.1.7-.3.8-.6.3,0,.5-.1.7-.4-.1-.3-.6-.5-.6-.7.2-2.5,3.8-1.4,1.9.8-.2.2-1.5.4-1.9,1.3,1.5.9.6,1.8,0,3-.8,1.5-3.2,3.1-5.5,3.8h0ZM18.3,79.2c1.9,1.3,2.3,1.4,2.6,1.3-.3.8,0,1.4-.2,1.9-1.6-.1-3.4.6-4.9.6-4.1,0-6.2.3-7.8-1.8-1.7-2,1.1-4.3,2-4.2.5-2.5-7.7-4.4-6.1-8.8,1.8-5.1,8.5,4.6,7.8,9.4.6.3.4-1.1,1.8-1,1.7.4,3.1-.2,5,2.6h0ZM40.2,73.5c-1.9-.5-3.2-1.4-6-4.6-1.1-.3-2.4-.4-3.9.2-1.5-.4-2.4,0-3.4,1.7-1.3-1.4-3.1-3-4.2-3.3-.4-.9-1.4-1.7-1.6-1.4-1.4.8-2.3,2.6-4.2,3.2-.2,0-2.6-2.8-2.6-3.1,0-.9-.6-1.5-.9-1.9,1-.9.3,1.5,1.8.2.3-1.2-.8-1.7-1.6-1.5-1.2.2-1.9,1.5-3.1,1.4.1-1.6-.4-1.5-.9-1.5-.9,0-1.3,1.2-1.9,1.4-1.1.3-1.2.7-1.3,1.7.3.4-1,.3-1.6,0-.2-.1.1-1.2-.3-1.6-2.2-.2-1.5-.6-1.5-.9-.2-.7-.9-.5-1.3.3.9,1.7-.4,1.5-.5,2.4,0,0,3,1.3.8,2.6.9,1.1.4,1.7.4,2.7.4.6,1.7.7,1.5,2.4,1.3,0,2.1,1,2.2,1.4,1.3-.1,1.9.6,2.2,1.3-.9,1.7-2.1.5-1.9,1.6-.2.6.2,1.1-.1,1.4.3,0-.7.8-.6.8-.3.7,1.3.1.7,1,.2,0-1.8.8-1.5,1.5,1.1,1,.2,1.3-.8,1.7-.5.4.2.4.4.3.3,0,.1,1.2,1.2.6-.3-1.8.7-.9,1.9-.9.6.1.3-2.7,2-.6,0,0,.6.3.9-.2.5,0,1.5,0,2.2.2.4.8.6.4.7.5.2,0,.5,0,.5-.5.6,0,1.9.2,2.4,0,.3.4.6.3.8.5.4-1.7,4.3-1.8,4.6.9,1.4.2,2.2,1.1,3.1,1.4,1.1-.3,2.4-.6,3.2.2.7-.6,1.9-1.3,2.8-1,1-1.1,2.3-1.3,2.8-1.5,1.9,1.6-3.1,2.6-1.2,4.4.9-1.5,2.6-.3,3.8-1.4.5,1,1.1,1.5,1.9,1.2-.3-1.3.2-1.7.6-2.7,1.6,1.1,3.5,1.7,5,1.7.1-.4-.8-1.1-.7-1.4,2.2.3,2.4,3.1,4.8,2.5l-.4-.9c.6,0,1.1.7,2.1.7,1.2.1,2.3-.2,2.8-.9-.9,0-1.8-.4-2.4-1,3.9-2.7.3-2.1,5.7-1.6,1.8.6,4,1.1,6,1,2.2,0,3.4-1,5.4-1.5.2-1,1.4-1.3,1.3-2.3.7-.6,1.5-.4,1.9.2,2,0,.9,1.1,1.9,1.3,1.2-.8,1.7.7,2.1.5,2.4-1.1,2.2.5,2.5.3,1.1-1,2.8-.9,3-.6.2-.5.7-1,1-1,.2-.6,0-1.2.4-1.9,1.4-1.2-.3-.8-.3-1.5-.2-1-.9-1.1-1.1-1.4,0-.6,0-1.5-1.2-.7-.5-.5-2.7-1.3-7.8.2-3.3,1.1-5,0-3.5-.9,1.1-.6,4.6-1.9,5.4-2.4.1,0,2.4-1.4,3.1-3.2,2.1,0,4.5-.3,5.5-.6,1.8-.5,4.7-2.2,3.1-5.5.4-.3.9-.1,1.1-.8l.2-.6-.7-.8c.4-1.3,1.2-.3,1.3-.9.3-.6-.5-.5-1-.6s-1-1.1-1.3,0c.2.2.5.5.5,1-.6,0-2.9-1.2-2.2,1.8-.7.1-2.1.8-2.8,1.4-.4,0-.1-.8-.9-1-1-.3-1.5.9-2.1-.9l-1.1.6c.1,0-.1.7.1.6,1-.4.9.3,1,.3-.2.3-.5.7-.6,1.1-.2.5.5,1,1.9,1-.1.5-1.4,1.7-2.7,1.7s-2.4-1.1-3.7-.9c-1.5.4-3.7.8-4.8,1.8-1,1.4-2.1,2-2.1,2.7,0,.7-.9,2-1.2,2,0,2.3,0,3.9-1.3,3.1-.2.6-.8.8-1.5.6-.5.4-1.1.7-1.7.4-.9.9-1.9,1.4-2.8,1.2-.7.7-1.3,1.1-2,.9,0-.4,1-1.2,1.9-1.7.6-.2,1.9-.3,2.9-1.1.9-1.8,1.7-2.2,2.4-2.5,0-.8.3-2.2.1-2.9.3-.6.9-1.2,1.6-1.2,0-1,.6-1.8.6-2.5-.7,0-1.5-1-2.1-1.2-.4.2-1.2.5-1.5.7-.5.2-.6,1.7-1.3,1.9-4.4-.6-6.1,4.3-6.5,5-1.2.3-3.8-1.8-5.1-1.7-1.4,0-2.5,1.1-3.9,1-1.4,0-2.9-1-3.2-1h.3ZM64.9,38.4c-.3-.1-.6-.2-1,0-.2.4-.2,2.3-.2,2.7.4,0,1.3-1.9,1.2-2.6h0ZM64.6,61.8c-.1.3.3,2.1.6,2.1.3-1.6-.3-2.7-.6-2.1h0ZM66.6,61.5c-2.3-.9,1,3.6-1.9,2.5-.4-2.3-.7-3-1.5-1.4.2.7.5,1.7.5,2.3,1.1.9,2.2.9,3.2,0,.3-.9.3-3.4-.4-3.4h0ZM80.1,68.2c.3,0,.5,0,.6-.4.4-.6-.3-.6-.6-.5-.7.5-.1.8,0,.9h0ZM81.8,68.9c.3,0,.5,0,.6-.3-.1-.5-.4-.3-.4-.3-.7.3-.2.4-.2.6h0ZM81.4,66.9c.3,0,.6,0,.6-.4-.2-.3-.6-.3-.5-.3-.6.3-.1.5-.1.7h0ZM83.1,67.1c.3,0,.5,0,.6-.3,0-.5-.5-.4-.5-.4-.7.5-.2.6-.1.7h0ZM78.3,65.3c.6,0,.5.6,1,.9-.5.3-.9.1-1.9,0,0-.5.6-1,1-1h0ZM83.7,63.1c.6-.1,1.2.5,1.7.9-.2.5-.9.4-1.3.5-.7-.1-.7-1.3-.4-1.3h0ZM70.9,79.3c-.3-.1-1.3-.1-1,.9.3,0,1.1-.3,1-.9h0ZM73.2,79.7c-.4-.1-1.7-.2-1.1,1.1.5,0,1.5-.5,1.1-1.1h0ZM75.4,81c.3-.5-1-.9-1-.3.2.2.9.6,1,.3h0ZM74.9,79c.3,0,1.3,0,.6-.9-.3-.1-1.2-.2-.6.9h0ZM76.8,80.4c.2,0,.9-.3.8-1-.5,0-1.7,0-.8,1h0ZM78.3,82.4c.3,0,1.8-.4,1.3-1.1-.6-.5-1.9.4-1.3,1.1h0ZM66.4,72.6c.1.6,1.2.5,1.1-.5-.3,0-1-.2-1.1.5h0ZM71.6,70c-.3,0-.7.2-.6.6.3.4.6.4,1.1,0,.2-.4-.3-.7-.5-.6h0ZM72.4,72.7c.3,0,.5,0,.5-.4.4-.4-.3-.8-.6-.8-.7.5,0,1.1.1,1.2h0ZM69.2,70.4c.1.5,1.3.6,1.2-.3-.3-.5-1.1-.4-1.2.3h0ZM70.3,72.1c.3-.2.5-.6.4-.8-.3-.1-.7-.2-.9.3,0,.3.2.5.5.5h0ZM71.1,72.8c-.2,0-1,.1-.7.6.5.3.7.3.9,0,.3-.2.1-.5-.1-.5h0ZM68.3,74.3c.4-.3.5-.7.3-1.1-.3,0-1.1.1-1.1.7.3.3.3.5.8.3h0ZM66.2,74.9c-.2,0-.5.2-.4.6.5.3.7.3.8,0,.2-.4.1-.6-.4-.6h0ZM31.1,78.3c1-.3-.4-2.6-1-1.8-.4.5.3,1.8,1,1.8h0ZM41.2,77.3c-.6,0,0,.6,0,.9.2.3.5.3.8.3.5-.6-.4-1.4-.7-1.3h0ZM43.6,77c-.2-.3-1-1.6-1.1-.4,0,.6,1.3,2,1.5,1.4,0-.3-.3-1-.4-1h0ZM46.8,81.5c.4.4,1.2.3,1.5-.5.1-.3-1.9-.5-1.5.5h0ZM48.4,83.4c.3.4.9.5,1.2-.3.1-.6-1.5-1.1-1.2.3h0ZM54.1,77.6c-.3,0-.9.4-.7,1,.6.3,1,.2,1.1-.2,0-.3,0-.6-.3-.8h0ZM54,75.8c.3.3.7.2.9,0,.7-1.1-.3-1-.9-.9-.1.4-.2.6,0,.8h0ZM56.2,75.4c.3.3.7.3.9.1.7-1.1-.3-.9-.7-.7-.1.4-.3.4-.1.6h0ZM56.9,76.9h.5c.4-.9-.3-.6-.6-.6-.2.3-.1.5,0,.6h0ZM58.8,75.2c.2,0,.7.1.9.1.7-1.1-.4-.9-1-.7-.2.3-.1.5.1.6h0ZM57.6,73.5c.3.3.5.2.6,0,.7-1.1-.1-.9-.6-.8-.1.4-.2.6,0,.8h0ZM56.8,71.8c.3.7,1.2-.1,1-.3-.5-.3-1,0-1,.3h0ZM61.4,69.2c.3.7.9,0,.6-.3-.5-.3-.7-.1-.6.3h0ZM41.1,86.2c.5.5,1.5.8,1.7.5-.5-.2-.6-.5-.7-.7-.3,0-.6.2-1,.2h0ZM30.5,82.4c.6,0,.2-.7.4-.7-.2-.2-1.2-.2-1.4.4,0,.2.3.3,1,.3h0ZM27.1,81.8c-.3,0-.7,0-.8.6.4.4.9.5,1.2.5.7-.4-.3-1.1-.4-1.1h0ZM24.5,80.2c-1.1-.2-1.1.7-.2,1,.3.2.7-1,.2-1h0ZM24.7,83c-.5-.2-1.1.4-1,.6.7,1,1.8,0,1-.6h0ZM28.2,84.4c-.5-1.1-1-1-1.2,0,.5.4,1.2.4,1.2,0h0ZM44.5,77.1c.3.6.5.5.8.2,0-.6-.8-1.7-1.2-1.4,0,.3.3,1.2.4,1.2h0ZM46.7,76c-.2-.4-.4-.5-.9-.4-.2,1,.5,1.7.9,1.7s.3-.7,0-1.2h0ZM47.5,75.2c-.7.3,0,1.4.6,1.1,0-.4-.2-1-.6-1.1h0ZM47.4,78.2c-.4.4.4.5.4.9.3.3.1.2.5.2.1-1.1-.6-1.3-.9-1.1h0ZM49.6,78.1c-.3-.6-.6-1.1-1.1-.7-.3,1,1,1.9,1.4,1.4.3,0,0-.7-.4-.7h0ZM49.8,75.8c-.7,0-.3.6-.3.9.5.5.7,1.5,1.3,1.2.5-.3-.7-1.7-1.1-2.1h0ZM37.2,75.6c.5.3.7.3.6-.1-.4-.4-.7-.8-1.1-.5-.2,0,0,.7.5.6h0ZM38.1,75.3c.4.3.8.5,1.2.5.4-.3-1-1.9-1.4-1.2,0,.3,0,.5.2.7h0ZM33.6,72.5l-.4-1.1c-.4-.1-.6,0-.5.4,0,1,.2,1.3.7,1.3s.3-.4.2-.7h0ZM34.8,71.6c-.3-.2-.5,0-.6.4,0,.6.8,1.5,1.1,1.1s-.4-1.1-.5-1.4h0ZM24.1,71.4c-.8-.4-.9.6-.4,1.1,0,.9.8,1.2,1,.5,0-.4-.4-1.3-.6-1.7h0ZM20.2,77.3c-.2.4-.3.9-.3,1.5.3.3.7.2.9-.2.6-1.1.2-2.4-.6-1.3h0ZM15.6,72.7c-.3-.3-1.4,0-1.3.7.5.4,1.5-.5,1.3-.7h0ZM17,73.1c-.3-.3-1.3.5-1.2,1.3.5.6,1.4-.9,1.2-1.3h0ZM17.7,75.2c.5.1,1.1-1,.9-1.4-.5-.1-1.1.6-.9,1.4h0ZM20.3,74.1c-.4-.3-1.2,1.5-.3,1.7.5-.3.7-1.8.3-1.7h0ZM22.6,74.7c-.5-1-1-1.1-1-.2.1,2.2,1.2,2.7,1,.2h0ZM24.6,74.9c-.4-.8-.6-.8-.7,0-.3,1.8,1.1,1.8.7,0h0ZM26.1,76c.3.3.6.4.9.2,0-1.7-1-2.4-1.2-1.6,0,.7.2,1.1.3,1.4h0ZM29.3,75.5c-.4-.3-.6-1.3-1.7-1.3-.2,1.7,1.7,2.7,1.7,1.3h0ZM31.3,74.9c-.5-.6-.9-1.1-1.2-1.2-.4-.2-.6.2-.6.4.6.8,1.5,2.6,2.2,1.5.2-.5-.3-.7-.4-.7h0ZM26.1,72.2c-.4-1.7-1.1-.8-1-.6.5,1.6,1.1,2.1,1.3,1.3l-.3-.7h0ZM22.8,72.7c.3-1.4-.5-1.8-1-1.4.2,1,.2,2.7,1,1.4h0ZM21.2,71.6c-.2-1-.8-1.2-.8,0-.3.4-.8.5-.5,1.1.8.4,1.1-.5,1.4-1.2h0ZM19.7,70.7c-.3,0-2,.7-1.3,1.4.7.2,2.1-1.1,1.3-1.4h0ZM16.9,71.3c-.2.4,0,.5.2.6,1-.4,1.8-1.2,1.1-1.5-.4,0-1.1.8-1.3,1h0ZM15,77.2c-.2,0-.7,0-.7.6.4.3.6.4.9.2,0-.3,0-.9-.2-.9h0ZM15.1,81.4h-1.3c-.2.2.5,1.1,1.1.8,0,0,.5-.8.2-.8h0ZM18.5,80.5c-.4,0-1-.5-1.3,0,0,.2,0,.7,1.2.8.2-.2.3-.9.2-.9h0ZM12.1,80.9c-.2,0-.7.1-.7.7.4.3.7.3,1.1.1,0-.3-.2-.9-.3-.9h0ZM13.1,78.9c-.3-.3-.8-.3-1.1,0,0,1.9,1.5-.1,1.1,0h0ZM9.4,78.5c-.5-.1-.7.3-.7.4.2.4.2.5-.2.7-.4.3.9,1.9,1.4,1.7.5-.4,0-1.1-.3-1.4l.2-.7c0-.3-.2-.5-.5-.7h0ZM5.3,69.2c-.7-.2-.9,0-.6.4.5.4.9-.4.6-.4h0ZM5.6,71.4c-.4,0-.3.4-.3.6.2.2.5,0,.6,0,.2,0,0-.6-.3-.6h0ZM6.4,68c-.6,0-.4.4-.4.7.4.2.7.1.9,0,.3,0,.1-.7-.5-.7h0ZM7.6,71.1c-.4,0-.3.3-.3.6.2.1.5,0,.6,0,.2,0,0-.5-.3-.5h0ZM7.9,72.9c-.4.2-.1.6,0,1,.3.1.6-.1.6-.3.3,0-.2-.9-.6-.7h0ZM10,73.2c-.4,0-.3.4-.3.6.2.1.5,0,.5,0,.2,0,0-.5-.3-.5h0ZM14.9,70.6c.7.2.3-1-.3-1.6-1,.3,0,1.5.3,1.6h0ZM13.3,70.7c.4.4.6-1.1.1-1.7-1,.3-.4,1.5-.1,1.7h0ZM11.6,70.6c.6.5,1.5-1,.7-1.5-.4-.1-1.1,1.4-.7,1.5h0ZM59.6,80.3c-.3,0-.8.5-.4.9.3.1,1.2.1,1.2-.9h-.7ZM60.2,82.2c-.2.2-.5.3,0,.5.3-.2.5.1.6-.4-.3-.1-.5-.3-.6-.2h0ZM61.4,83.8c-.3,0-.9,0-.7.7.5.3,1.1,0,1.4-.3-.1-.2-.5-.4-.7-.4h0ZM64.1,82.2c-.3.2-.9.6-.3.9.5.2,1.1-.5,1.1-.6-.1-.2-.4-.3-.8-.2h0ZM62.9,79.8c-.3.2-.9.6-.2.7.3,0,.9,0,.9-.8-.3-.1-.6-.1-.7,0h0ZM5.5,63.6c0,.5,0,1.4.3,1.4.3,0,.5-.3.6-.7.5,0,.8,0,.9-.2-.3-1.3.3-.7,1.5-1.1.1-.3.5-.9,0-1.2-.6,0-.5.4-1.2.6-1.2-.1-2,.5-2.1,1.1h0ZM24.7,63.5h.5c0,.1.1-1.4.1-1.4-.6-.2-.6.2-.6,1.5h0ZM27,63.6c.1-2-.2-2.2-1.1-2.2-.3,3.8-2.1,2.9-1.6,0-.3-.6-1,.2-1,.2-1.4,4.4,3.7,4.9,3.7,2h0ZM30.2,64.4c0-1-.2-.7-.9-.7,0,.7,0,.5-.3.7-.1,0-.2-1.3-.3-1.3s-.4,1.4-.4,1.2c-.2-.3-.2-.9-.1-1.7-.2-.5-.7,0-.7,0-1.1,3.4,2.8,4,2.8,1.7h0ZM20.6,63c0,1,.5-.3.5-1h-.5v1h0ZM22.8,61.7c0-1-.7-.5-1.1-.5-.1,3.7-2.4,2.8-1.7-.6-.5-.3-1-.3-1.2.4,0,1.2-.5,2.2,0,2.9.7,1.1,2.7,1.3,3.4.5.4-.4.5-1.5.5-2.6h0ZM19.9,59.6c.4.1,1.2.3.9-.9-.3,0-1-.3-.9.9h0ZM22.8,59c-.2-.1-.6,0-.5.9.3.1.5.1.8,0,.4-.3.1-.9-.3-.9h0ZM24.5,60.3c.4.1.7-.2.7-.3,0-.5-.4-1.1-1-.3,0,.3.1.5.2.6h0ZM27.3,59.7c-.4-.5-.5.3-.5.6.4.3.5.3.8,0,0-.2,0-.5-.3-.6h0ZM20.8,56.7l4.6,1c.1-.4.1-1,0-1.5-.4-.4-.7-.4-1.1,0-.4-.5-.9-1.3-1.9,0-.2-.4-.2-1-.3-1.2-.3-.2-1.1-.3-1.4,0-.3.3,0,1.1,0,1.8h0ZM20.8,58c1.7.3,3.5.8,5.2,1v-.9c-.9-.2-4.3-1-5.1-.9-.4.2,0,.7-.2.7h0ZM69.4,54.5c0-.2-1.4-.9-1.2-1.2.2-.2,1.4.9,1.5.9l-.3.3h0ZM68.6,55.6c-.6,2.7.9,5.1,3.1,4.8-.9-1.2-1.7-2.6-.4-4.4,1.1-.9,2.7.2,3.4,1,.7-1.3-.3-2.1-1.5-2.4.3-.4,1.7-.2,2.3-.2-.5-1.1-1.9-2.2-4.8-1.1-1.3-.6-2.8-1.9-3.8-2.3-.9.4-1.9.3-2.4,0l4,4.6h0ZM23.4,37.4c-.9-.6-.6-.3-1.3,0,0,.6.3,2.2.5,2.2.5-.3.5-1.5.7-2.2h0ZM22.2,32.5c-.3,0-.8-.3-.9.5,0,.9,1.2.5,1.4.4.4-.7,0-.7-.6-.8h0ZM21.3,31.9c.6.6,2.4.6,1.9-.3-.4,0-1.9-.7-1.9.3h0ZM21.7,30.9v-.8c.5-.4,1.1-.5,1.7-.4v.7c-.5.4-1.1.5-1.7.5h0ZM22.2,39.9c.7,3.5,2,5.9.7,8.9-.7,1.1-1.7,1.2-2.6,1.3-1.1-.3-2.2-.9-1.9-2.6-.1-.3,1-1.2,1.4-1,.4,0,.9.4,1.1,1,1.9-3.7-2.3-7.3-1.3-17,.5-2.6,1.9-4.9,3.4-4.9v1.4c-2.1,1.5-3.4,6.4-1,12.9h0ZM61.4,62.1c-.4-.3-.7-.1-.6.2,0,.6.3,1.3.6,1.3.2-.4.1-1.2,0-1.5h0ZM62.9,62.2c-.4-.6-.9-.6-1.1,0,.5,2.3-1.2,2.2-1.3-.1,0-.6-1.1.1-1.2.1,0,.6.6,1.9.6,2.6.5,1.1,4.8,1.9,3-2.7h0ZM58.6,64.7c0-.6-.3-2.1-.3-2.8-.6-.4-1.5-.3-1.4.4,0,.7,0,1.7-.1,2.3-.4-1.6-.4-1.2-.5-.6,0,.3-.2.6-.2,1-.7-2.7-2.6-.5-1.4,1,1.1.4,4.3.4,3.8-1.2h0ZM64.2,59.6c0,.3.4,1.1.5,1.1,0-1.6-.2-1.7-.5-1.1h0ZM65.2,57.8c-.5-.5-2.1.2-2.2.7-.4,1.9.1,3.1.9,1.9v-1.1c0-.3,0-.6.4-.8.6,1.1.8,2.6,1.6,1.2-.2-1-.4-1.5-.7-1.9h0ZM60.8,59.2c-.5,1.8-.3,1.7.5,1.5.1-.6-.2-1.5-.5-1.5h0ZM61,58.7c.5-.3.5,1.5.7,2.2.5,0,1.4-.6.5-2.6-.6-.9-2.7-.6-2.9.1-.2.6-.3,1.7-.1,2.4,1.7,1,.2-1.8,1.7-2.1h0ZM62.2,55.4c.3-.2-.3-.7-.2-.6-.3,0-1.2-.5-.7.9.3.1.7,0,1-.3h0ZM63.3,53c-.1.1-.5-.1-.6,0-.2.1-.5-.7-.6-.6-.9,3,2.1,1.9,2.7,1.5.1-.8-.6-2.6-.9-3.6-.3,0-.6,2.3-.6,2.7h0ZM64.8,54.6c-.2,0-.6.1-.4.9.3,0,.7.1,1-.3,0-.3-.2-.5-.5-.5h0ZM63.1,54.7c-.2,0-.6.3-.4,1,.4.2.7.2,1-.3.1-.2-.1-.6-.5-.6h0ZM65.2,57.2c.4-.3.3-.6,0-1.3-.7-.1-3.2.3-4.2.1-.3.3-.9.4-.2,1.3.8.2,4,0,4.4-.2h0ZM52,40.5h0v.2h0v.2h0c0,0,0,0,0,0h0c0,0,.2,0,.3,0h0s.1,0,.2,0h0q0-.1,0-.1h0v-.3h0v-.2h0v-.2h0v-.2h0c0-.1-.2-.1-.2-.2h-.5v.2h0c0-.1,0,.5,0,.5ZM40.4,65.8h0c0,0-.1,0-.1,0h-.4s-.2,0-.3.1-.4.2-.6.4h-.2c-.7.5-1.2.7-1.3.9h0c-.2.2-.4.2-.6,0-.1,0-.2-.2-.2-.2-.1,0-.1-.2-.1-.2v-.5c0-.2.1-.6.2-1.1,0-.2,0-.3.1-.6.1-.4.2-.6.1-.6,0,0,0-.1-.1-.2h0v-.2c0-.1.2-.1.4-.1.2,0,.4.2.7.4.3.2.5.4.6.5.1.1.1.2,0,.3,0,0,0,0-.1.1h-.4c0,0,0,.1,0,.2,0,.1.2.2.4.3.2.1.3.2.4.2h.2c0,0,0,0,0-.1,0,0,0,0,0-.1,0,0,0,0,0-.1h0c0-.2.2-.2.3-.2.2,0,.3.1.5.3.2.1.4.2.4.4,0,.1,0,.2,0,.3h0ZM38.5,65.9l-.6-.4c0,.2,0,.4-.1.5v.2s.1,0,.2,0c.1,0,.3-.1.5-.3h0ZM42.6,67.8c0-.2,0-.3,0-.4s0-.2,0-.3,0-.1,0-.1c0,0,0,0,0,0-.1,0-.2-.2-.2-.3,0-.1.1-.2.3-.2s.3,0,.6.1c.3,0,.5.2.7.2.1,0,.2.2.2.3,0,0-.1.2-.2.2h0c0,0-.1.1-.2.3,0,.2-.1.4-.1.7h0c0,.4,0,.7,0,.7v.2h.1c.1,0,.1.2.1.3s-.1.1-.2.1h-.9c-.1,0-.3,0-.5-.1h-.4c-.4,0-.7-.2-.9-.4-.2-.2-.3-.4-.3-.6s0-.2.1-.3c0,0,.2-.2.3-.2h.1c0,0,.2,0,.2,0,0,0,0,0-.2-.1-.1,0-.2-.1-.2-.1-.1-.1-.2-.2-.2-.3,0-.2,0-.3,0-.4s0,0,0-.1,0-.3-.1-.3h0c-.1,0-.2-.2-.2-.3,0-.1.1-.2.3-.2h.6c.2,0,.3.1.4.1.1,0,.2.1.3.2.1.1.2.3.2.6h0c0,.5.2.7.3.7h0v-.2ZM42.6,68.2h-.1c-.1,0-.2,0-.3,0,0,0,0,.2-.1.3,0,.1,0,.2,0,.3,0,0,.1.1.2.1h.1v-.5h0v-.2h.1ZM49.2,63.2h0c0,.1-.1.2-.2.3-.1,0-.2.2-.2.2v.3c0,.1,0,.4-.1.7v.2c0,.4,0,.8-.1,1.1,0,.3,0,.5,0,.5h0c0,.3-.1.4-.4.6-.1,0-.3.1-.4.1h-.3c-.2,0-.3-.1-.5-.2-.1,0-.2-.2-.4-.3-.1-.1-.4-.3-.5-.4s-.3-.2-.4-.3c-.2-.2-.4-.4-.5-.4h-.2s0,0,0,0c0-.1,0-.2.2-.4.1-.1.4-.3.7-.4.4-.2.6-.4.8-.4.2,0,.4,0,.4,0h0c0,.1,0,.2,0,.3h0c0,0-.1.1,0,.2h.2c.1,0,.3-.1.6-.3.2-.1.4-.2.4-.3s.1-.1.1-.2,0,0-.1,0h-.3c0-.2,0-.3.1-.4s.3-.2.6-.4c.3-.2.5-.2.6-.3.2,0,.3,0,.3,0h-.3ZM47.9,65c-.3.1-.5.3-.8.4.2.1.3.2.4.3,0,0,.2,0,.2,0,0,0,.1-.1.1-.2v-.5h0ZM55.1,60.2c-.2-.1-.4-.3-.5-.4h-.2c-.1.1-.1.2-.1.3s0,.2.2.3c.1,0,.3.1.3.1.1,0,.2-.1.3-.2h0c0,0,0-.1,0-.1ZM54,59.5c-.1,0-.2-.1-.3-.2,0,0-.1-.1-.2-.1h-.2s0,0-.1.1-.1.2-.1.3,0,.2.2.3c.1,0,.2.1.3,0,.1,0,.3-.1.3-.2h0v-.2h0v-.2ZM52.6,59.4c.2-.3.5-.5.6-.8.2-.3.5-.5.6-.8.1-.1.2-.2.2-.2h.3v.2h0c0,.1,0,.2,0,.2,0,0,.2.2.3.3s.4.3.6.4c.1,0,.2.2.3.3.2,0,.3.2.4.2s.2,0,.2,0c0,0,0,0,.1,0,.1,0,.2,0,.3,0,0,0,.1.1,0,.2,0,0,0,.2-.2.3,0,0-.1.2-.2.3,0,.1-.2.2-.3.3-.1.1-.3.3-.4.4-.2.2-.3.3-.3.4-.3.3-.6.5-.9.6-.2.1-.5,0-.7-.1,0,0-.1-.2-.2-.2v-.3h0v-.2s-.1,0-.2,0h-.1c-.1.1-.2.2-.4.2s-.2,0-.4-.1c-.2-.2-.3-.4-.3-.7,0-.3.1-.5.3-.9h0ZM57.2,53.4h0c0,0,.1.1.1.1v.4c0,0,0,.2.1.3,0,.1.2.3.4.6,0,0,0,.1,0,.1.2.4.4.7.5,1,.1.2.2.4.3.4h0c.2.2.2.4,0,.6-.1.2-.2.2-.3.3-.1.1-.2.2-.3.2s-.3,0-.5,0h-.5c-.2,0-.4,0-.7,0h-.6c-.4,0-.6-.1-.8,0,0,0,0,0-.1.1h0c0,0,0,0-.1,0h-.2c-.1,0-.2-.2,0-.4,0-.2.2-.5.4-.8.2-.4.5-.6.6-.8.2-.1.3-.1.4,0,0,0,0,0,.1.1h0v.4s.1,0,.2-.1.2-.3.4-.5c.1-.2.2-.3.2-.4,0,0,0-.2,0-.2h0c0,0-.1,0-.2.1h-.1c0,0-.1,0-.2,0s-.1-.2,0-.3c0-.1.1-.3.3-.5.2-.2.3-.4.4-.5.1,0,.2-.1.3,0h-.2ZM57.2,55.4c-.1.3-.3.5-.4.7.3,0,.4,0,.5,0h.2v-.2c0,0-.1-.3-.3-.5h0ZM58.6,42.5h0c0,0,.1,0,.1,0,0,0,.1.2.1.3s0,.2,0,.2c0,0,.2.1.3.2.1.1.3.3.6.4,0,0,.1.1.2.1.3.3.6.4.8.6.2.1.3.2.4.2h0c.2.1.3.2.3.5s0,.3,0,.4,0,.2-.1.3c0,.1-.2.2-.4.4,0,0-.2.2-.3.3s-.4.3-.6.4c-.1,0-.3.2-.5.3-.3.2-.6.3-.6.4,0,0,0,.1,0,.2h0c0,.1,0,.2,0,.2h-.2c-.1,0-.2-.1-.3-.3,0-.2,0-.5,0-1s0-.9.1-1.1c0-.2.2-.3.3-.3h.1s.1,0,.1.1h0c0,.2.1.2.2.2s.1,0,.1-.2v-1.3c0-.1-.1-.1-.2-.1h-.2v.3h-.2c-.1,0-.2-.1-.2-.3,0-.2,0-.4,0-.7s0-.6.1-.7c0-.1.1-.2.3-.2h0v.3ZM59.7,44.4v1c.2-.1.4-.2.5-.3.1,0,.2-.1.2-.2s0-.1-.1-.2c-.1,0-.3-.1-.5-.3h0ZM59.2,38.7l1.3,1.7c0,0,0,0,.1.1,0,0,0,0,0,0,0,0,0,0,.1,0v-.6c0-.1-.1-.2-.1-.2,0,0,0,0-.1-.1-.2-.1-.2-.3-.2-.5s0-.2.1-.2h.2c.1,0,.2.1.3.2.1.1.2.2.3.3,0,.1.1.2.2.3v.4h0v2.6c0,0-.1.1-.2,0-.1,0-.4-.3-.8-.8-.2-.2-.3-.4-.4-.5l-1-1.1s-.1,0-.1-.1h0s0,0,0,0v.6c0,0,0,.2.1.2,0,0,0,0,.1.1.1.2.2.3.2.4s0,.2-.1.2h-.3c-.2,0-.4-.2-.6-.4-.2-.2-.3-.4-.3-.5v-2.5c0-.2,0-.4,0-.4,0,0,.1-.1.2,0,0,0,.3.3.7.7v.2h.1ZM26.2,45.9h.5s0,0,0-.1c0-.2,0-.2-.2-.3,0-.1-.2-.1-.4-.1s-.3,0-.4.1c-.1,0-.2.2-.2.3s0,.1,0,.1h.5ZM27.4,45.8h.5s.1,0,.1,0h0c0-.2.1-.3.2-.3s.2.1.3.2c0,.2.1.4.1.7s0,.6-.1.8c0,.2-.2.2-.3.2s-.2,0-.2-.1c0-.1-.1-.2-.1-.2h-1.9c-.7,0-.2,0-.3,0,0,0-.1,0-.1.1h0c0,.2-.1.3-.3.3s-.1,0-.2-.1c0,0,0-.2,0-.4v-1.4c0-.5.1-.9.3-1.1.2-.3.4-.4.9-.4s.6.1.9.4c.2.3.3.6.3,1.1v.3h0l-.2-.2ZM27,40.3h.8s0,0,0,0c0,0,0,0,0-.1,0-.1.2-.2.2-.2s.2,0,.3.2c0,.2,0,.4,0,.7s0,.5,0,.7-.2.2-.3.2-.2,0-.2-.2h0s-.1,0-.3,0h-1.9c-.1,0-.2,0-.2,0h0c-.1.2-.2.3-.2.3s-.2,0-.2-.2c0-.1,0-.3-.1-.5v-1.4c0-.4,0-.7.2-1,.2-.2.4-.3.7-.3s.3,0,.4.1c.1,0,.2.2.3.3,0,0,0,0,0,.1,0,0,0,.1.1.1s0,0,.1-.2c0-.1,0-.2.1-.2,0-.1.2-.2.3-.3.1,0,.3-.1.4-.1h0c.2,0,.3,0,.3-.1h0c0-.2.2-.3.2-.3s.2,0,.3.2c0,.1.1.3.1.6s0,.3,0,.4c0,.1,0,.2-.1.3-.1.1-.3.2-.6.3h-.1c-.4.1-.6.3-.6.4h0c0,.1,0,0,0,0ZM26.4,40.3h0c0-.3,0-.4-.1-.4,0,0-.2-.1-.4-.1s-.3,0-.3.1c0,0-.1.2-.1.3s0,.1,0,.1h.9ZM58.4,33.2h.2s0,.1.1.2c0,.1,0,.1.1.2,0,0,.1.1.2.1.1,0,.3.2.6.3h.2c.7.4,1.2.6,1.4.6h0c.2,0,.4.2.4.4s0,.3,0,.3c0,.1,0,.2-.1.3-.1.1-.3.2-.4.3-.2.1-.5.3-1.1.5-.1,0-.3.1-.5.3-.3.1-.5.3-.6.3h0v.2s0,0,0,.1h-.1c-.1,0-.2,0-.3-.2s-.1-.4-.1-.8,0-.7,0-.8c0-.2.1-.3.2-.3h.1s0,0,.1.1h0c0,.1,0,.2.1.2s.1,0,.1-.2v-1c0,0-.1-.1-.1-.1h-.1q0,.2,0,.3h-.1c0,0-.2,0-.2-.2,0-.1-.1-.3-.1-.5s0-.5.1-.6c0-.1.1-.2.2-.2h0l-.2.2ZM59.5,34.7v.7c.2-.1.4-.2.5-.3.1,0,.2-.1.2-.1,0,0,0-.1-.2-.2,0,0-.2-.1-.5-.2h0ZM59.4,30.3h-.7s0,0,0,0c0,0,0,0,0,0,0,.1-.2.2-.2.2s-.2,0-.3-.2c0-.2,0-.4,0-.7s0-.6,0-.7c0-.2.2-.2.3-.2s.2,0,.2.2h0s.1,0,.4.1h1.8c.1,0,.2,0,.2,0h0c0-.2.2-.3.3-.3s.2,0,.2.2c0,.1.1.3.1.5v1.4c0,.4,0,.7-.2,1-.1.2-.3.4-.6.4s-.2,0-.3-.1c-.1,0-.2-.2-.3-.3,0,0,0,0,0-.1,0-.1,0-.1-.1-.1,0,0,0,0-.1.2,0,.1,0,.2-.1.2,0,.1-.1.2-.3.3-.1,0-.2.1-.4.1h0c-.2,0-.3.1-.3.1h0c0,.2-.1.3-.2.3s-.2-.1-.3-.3c0-.2-.1-.3-.1-.6v-.4c0-.1,0-.2.1-.3.1-.1.3-.2.6-.3h.1c.4-.1.6-.3.6-.4h0c0-.1-.1-.1-.1-.1ZM60,30.3h0c0,.3,0,.4.2.4,0,0,.2.1.3.1s.2,0,.3-.1,0-.2,0-.3v-.2h-.9ZM46.4,28.4c0-.2.2-.3.6-.3l1.2-1.5c-.2,0-.4-.1-.5-.3.1-.2.4-.3,1-.3s.7,0,.9.1l1.4,1.4.7-.8v-.4c-.1-.2.1-.3.6-.3s.7,0,.8.3l-.2.4,1.3,1.4c.4,0,.5.2.6.4,0,0-.3.3-.7.3h-1.5c-.2,0-.5-.2-.5-.3,0-.2,0-.3.3-.4l-.5-.6-1.3,1.2-1.8-1.8-.8,1.2c.3.2.3.3.4.4,0,0-.1.2-.1.2h-1.6l-.2-.2h-.1ZM57.4,26.2c0,.1,0,.2-.2.2h0c0,0,0,.2,0,.3v1.5s0,0,.1.1h0c.1,0,.2.1.2.2s0,.2-.2.2c-.2,0-.4,0-.7.1-.3,0-.6,0-.7,0-.2,0-.2-.1-.2-.2s0-.1.1-.2c0,0,.1-.1.1-.1,0,0,0-.1,0-.4v-1.3c0,0,0-.1,0-.1h-.1c-.1-.2-.2-.2-.2-.3s0-.2.2-.2.4,0,.7,0,.5,0,.7,0c.2,0,.3.1.3.2h0ZM31,27.8h0v.4s0,.1.1.1c0,0,0,0,.1,0,.1,0,.2.1.2.2s-.1.2-.3.2c-.2,0-.5,0-.9,0s-.7,0-1,0c-.2,0-.3-.1-.3-.2s0-.1.1-.2c.1,0,.2-.1.2-.1v-1.4c0-.5,0-.2,0-.3s-.1-.1-.2-.1h-.1c-.2,0-.2-.1-.2-.2s0-.1.2-.2h2.3c.6,0,1.1,0,1.3.2.3.2.5.4.5.6s-.2.5-.5.7c-.3.2-.8.2-1.3.2h-.4.1ZM31,26.9v.4h.1c.2,0,.3,0,.4-.1.1,0,.2-.2.2-.3s0-.3-.2-.3c-.1,0-.2-.1-.4-.1s-.1,0-.2,0v.3h0c0,.1,0,.2,0,.2ZM39.8,27.6v.6h0c0,0,0,.1.1.1s.2.1.2.2,0,.2-.2.2c-.1,0-.4,0-.7,0h-.8c-.2,0-.2-.1-.2-.2s0-.1.2-.2h0s0-.1.1-.3v-.7h0v-.7c0-.1,0-.1,0-.2h-.1c-.1,0-.2-.1-.2-.2,0-.1,0-.2.2-.2s.3,0,.5,0h1.5c.5,0,.8,0,1.1.2.2.1.4.3.4.5s0,.2-.1.3c0,0-.2.1-.3.2q0,0-.1,0c-.1,0-.1,0-.1.1h.2c.1,0,.2,0,.3.2.1,0,.2.1.3.2,0,.1.1.2.1.4h0c0,.2.1.3.2.3h0c.2,0,.3.1.3.2s0,.2-.3.2c-.2,0-.4.1-.7.1h-.4c-.1,0-.2,0-.3-.1-.1-.1-.3-.2-.4-.5h0c-.1-.4-.3-.6-.5-.6h-.1v-.3ZM39.8,27h.2c.1,0,.3,0,.3-.1,0,0,.1-.2.1-.3s0-.2-.1-.2c0,0-.2-.1-.3-.1s-.2,0-.2,0v.6h0q0,.1,0,.1ZM33.6,26.8c0-.2.2-.4.4-.5.2-.2.4-.3.6-.4.2-.1.4-.2.6-.2s.5,0,.8.1c.3,0,.5.2.7.3.2.2.4.3.5.5.1.2.2.4.2.6s0,.4,0,.6c-.1.3-.2.4-.4.6-.2.2-.4.3-.6.4-.2.1-.4.2-.7.2s-.5,0-.7,0c-.2,0-.4-.1-.6-.2-.1,0-.3-.2-.4-.3-.2-.2-.4-.5-.4-.7s0-.5,0-.8h0ZM35,26.7c0,.1,0,.3,0,.4v.4c0,.2,0,.4.2.5,0,.1.2.2.3.2s.2,0,.3,0c.1,0,.2-.2.2-.3,0-.1,0-.2.1-.3v-.4c0-.2,0-.4-.2-.5,0-.1-.2-.2-.3-.3-.1,0-.3,0-.3,0-.1.1-.2.2-.2.3h0ZM27.2,30.7l-.8.3h0c-.5.2-.7.3-.7.3h0c0,.2-.1.3-.2.3s-.3-.1-.3-.2c0-.2-.1-.4-.1-.6s0-.5.1-.6c0-.1.2-.2.3-.2s.2,0,.2.1h0c0,0,.1,0,.2,0s0,0,0,0l.6-.3h.2v-.2s-.1,0-.2-.1c-.3-.1-.5-.2-.6-.2s-.2,0-.2,0,0,0,0,.1h0c0,0,0,0-.1,0-.1,0-.2,0-.3-.2,0-.1-.1-.3-.1-.5s0-.5,0-.5c0-.1.1-.2.3-.2s.2,0,.2.2h0c0,.2.2.3.6.4.1,0,.2,0,.3.1l.8.3c.4.1.6.3.8.3.2.1.3.2.4.2,0,0,.1.1.1.2,0,0,0,.1,0,.2,0,.2-.4.4-1.1.7-.2,0-.3,0-.3.1h-.1ZM25,32.7v-.5s0,0,.1-.1c.1-.1.2-.2.4-.2.1,0,.3,0,.4,0s.3,0,.3,0,.1.2.1.3,0,.1,0,.2c0,0-.2.1-.2.2,0,0,0,0-.1,0-.1,0-.2.1-.2.2h0c0,0,0,0,.2,0h1.4c.2,0,.3,0,.4,0q.1,0,.2-.1h0c0-.2.1-.3.2-.3s.2,0,.3.3c0,.2.1.4.1.8s0,.5-.1.7c0,.2-.2.2-.3.2s-.2,0-.3-.2h0c0-.1-.2-.2-.4-.2h-1.6s-.1,0-.1.1,0,.1.2.2h.1c.1.1.2.2.2.2,0,0,0,.1,0,.2s0,.2-.1.2c0,0-.2,0-.3,0s-.2,0-.3,0c-.1,0-.3-.1-.4-.2-.1,0-.2-.1-.2-.2,0,0,0-.1,0-.2v-.2h0v-1.7h.1ZM28.3,37.6c-.1,0-.2,0-.3-.1q0,0-.1-.1c0,0-.1-.1-.3-.1h-1.8c0,0-.1,0-.2,0h0c0,.2-.2.2-.2.2s-.2-.1-.3-.2c0-.2-.1-.4-.1-.7s0-.6,0-.7.2-.2.3-.2.2,0,.3.2c0,0,.1.1.1.1,0,0,.2,0,.5,0h1.7c0,0,.1,0,.1,0,0,0,0,0,.1-.1.1-.1.2-.2.3-.2s.2.1.3.3c0,.2,0,.4,0,.7s0,.5,0,.7-.1.3-.3.3h0ZM28.2,44c-.1,0-.2,0-.3-.1,0,0,0,0,0-.1,0,0-.1,0-.3,0h-1.8c0,0-.1,0-.2,0h0c0,.2-.1.3-.2.3s-.2-.1-.3-.3-.1-.4-.1-.7,0-.6,0-.7.2-.2.3-.2.2,0,.2.2c0,0,.1.1.1.1,0,0,.2,0,.5,0h1.6c0,0,.1,0,.2,0,0,0,0,0,0-.1.1-.1.2-.2.3-.2.1,0,.2.1.3.2,0,.2.1.4.1.7s0,.5-.1.7c0,.2-.1.2-.3.2h0ZM28.7,49.1c0,.3,0,.6-.1.8,0,.3-.2.4-.2.5-.1.1-.2.2-.4.2s-.3.1-.5.2h-.2s0-.1,0-.2.1-.2.3-.3c0,0,.1,0,.1-.1.2-.2.3-.3.3-.4s.1-.3.1-.4,0-.2,0-.3c0,0,0-.1-.2-.1s-.2.2-.3.5c0,.1,0,.3-.1.3-.1.4-.3.6-.5.9s-.4.3-.7.4c-.4,0-.6,0-.9-.2-.2-.2-.4-.6-.4-1s0-.3,0-.5v-.4h0v-.3c0,0,.1-.1.2-.2.1-.1.2-.2.3-.2.1,0,.2-.1.3-.1h.3c.1,0,.1.2.1.3s0,.2-.2.4c0,0-.1.1-.1.2,0,0-.1.2-.2.3,0,.1,0,.2,0,.3s0,.2,0,.2c0,0,.1,0,.2,0,.2,0,.3-.3.4-.6h0c.1-.5.3-.8.4-1,.2-.2.4-.3.7-.3.4,0,.7,0,.9.3.2.3.4.6.4,1.1h0v-.2ZM29.2,52.4l.5,1.7c0,.2,0,.3,0,.3,0,.1,0,.1-.2.1s-.2,0-.3-.1c0,0-.1-.1-.1-.1,0,0-.2,0-.4,0-.3,0-.5.1-1,.2-.3,0-.5.2-.7.3-.1,0-.2,0-.2.1v.2c0,.1,0,.2-.2.2,0,0-.2,0-.2-.1-.1,0-.2-.1-.2-.2,0,0,0-.2-.1-.4,0-.3-.1-.6-.2-.8-.1-.4-.3-.7-.3-1.1h0c0-.1,0-.3.1-.4.1,0,.3-.2.5-.2s.2,0,.3,0c.1,0,.2,0,.2.2,0,0,0,.2-.1.3,0,0,0,0-.1,0,0,0,0,.2-.1.3v.4c0,.2.2.3.2.3,0,0,0,0,0,.1,0,.1,0,0,.1,0h.4c.2,0,.2,0,.3-.1v-.2c0-.1,0-.2,0-.2,0,0-.1,0-.2,0h0c-.1,0-.3,0-.4-.1,0,0,0-.2.1-.3.1-.1.3-.2.5-.2.3,0,.5-.1.7-.1s.2.1.2.2,0,.2-.2.3h0c-.1,0-.2.1-.2.1v.2c0,.1.1.2.1.2,0,0,.2,0,.3,0,.2,0,.3-.1.4-.1s.1,0,.2,0c0,0,0-.1,0-.1,0,0,0-.2,0-.3,0-.2-.1-.3-.2-.4,0-.1-.2-.2-.3-.2,0,0-.1,0-.2,0-.1,0-.2-.1-.2-.2v-.3c0,0,.1,0,.2-.1.1,0,.2-.1.4,0,.1,0,.2,0,.4,0s.3,0,.3.2c0,0,.1,0,.1,0h0c0,.3,0,.6.2.9h0v-.3ZM58.6,49.2s.1.1.1.2h0c0,.1.1.2.2.3.1,0,.3.1.6.2.3.1.6.2.7.3h.4c0-.2.1-.2.2-.2.1,0,.2.2.2.3s0,.4-.1.7c-.1.3-.2.5-.2.7-.1.1-.2.2-.3.2,0,0,0,0,0,0v-.2c-.1,0-.1-.1-.2-.2,0,0-.1,0-.3-.1h-.3s0,.2-.1.3c0,.1,0,.2-.1.3v.2c0,0,0,0,0,0,0,0,.1,0,.2,0h0c0,0,.2,0,.3,0h.2c0,0,.2-.1.2,0,0,0,.1.1.2.3,0,.2,0,.5-.1.9-.1.4-.2.6-.3.7-.1.2-.2.2-.3.2-.1,0-.2-.1-.2-.3h0c0-.1,0-.2-.2-.3-.1,0-.3-.2-.7-.3-.3-.1-.6-.2-.7-.2-.2,0-.3,0-.3,0,0,0,0,.1-.1.1s-.2,0-.2,0c-.1,0-.2-.2-.2-.3,0-.2.2-.4.2-.7,0-.3.2-.5.3-.7s.2-.2.3-.2c0,0,.1,0,.1.1s0,.1,0,.2h0c0,0,0,.1,0,.1,0,0,.1,0,.2.1.1,0,.2.1.3.1h.2c0,0,.1-.2.1-.3s.1-.3.1-.3v-.2c0,0,0,0,0,0,0,0,0,0-.1,0-.2,0-.3-.1-.4-.1h-.2c-.1.2-.2.2-.3.2,0,0-.1-.2-.1-.3s0-.4.2-.7c.1-.3.2-.5.3-.6.1-.1.2-.1.3-.1h0v-.2ZM50.3,61.7c.2-.2.5-.4.6-.5.2-.2.4-.3.6-.5h.3v.2h0c0,.1,0,.2,0,.2,0,0,.2.2.3.4.1,0,.2.2.3.3.2.2.4.4.5.4,0,0,.1,0,.2,0h.4c0,.1,0,.3,0,.4-.1.2-.3.4-.5.7s-.5.5-.7.6c-.2.1-.3,0-.4,0v-.4h0c0-.2,0-.2,0-.3h0c0-.2,0-.3-.2-.4s-.2-.3-.4-.5c0,0-.1-.2-.2-.2-.1-.1-.2-.2-.2-.3h-.1c0-.1-.1-.1-.1-.1,0,0-.2.1-.2.1-.1.1-.3.3-.3.3,0,.1,0,.2,0,.3h0c0,.3,0,.4-.1.4,0,.1-.2.1-.3.1s-.2,0-.2-.1c0,0,0-.2,0-.4v-.4c0,0,0-.2.1-.2,0,0,0-.1.1-.2h0c.2-.2.3-.3.5-.4h-.1ZM33.8,60.2l1.1,1.2c.1.1.2.2.2.3,0,.1,0,.1-.1.1,0,0-.2,0-.3,0,0,0-.1,0-.1,0,0,0-.2,0-.4.2-.2.1-.4.3-.9.6-.2.2-.4.3-.5.5-.1,0-.2.2-.2.2,0,0,0,0,.1.2,0,.1,0,.2-.1.2,0,0-.1.1-.2,0,0,0-.2,0-.3-.1,0,0-.1-.1-.3-.3-.2-.2-.3-.4-.5-.6-.3-.3-.5-.5-.8-.7h-.1c0,0,0-.2,0-.3,0-.1.2-.3.3-.4.1-.1.2-.2.3-.2s.2,0,.3,0c0,0,0,.2,0,.3h0v.4c.1,0,.1.2.2.3s.2.2.3.2h.1c.1,0,0,0,0-.1.2,0,.2-.1.3-.2.1-.1.2-.2.2-.3,0,0-.1,0-.1-.1h-.1c0-.1-.1-.1-.2-.1h0c-.1.2-.3.1-.4,0,0,0,0-.1,0-.3,0-.1.2-.2.4-.4.2-.2.4-.3.6-.4.1,0,.3,0,.3.1.1.1.1.2,0,.3h0c0,0-.1.2-.2.2,0,0,0,.1,0,.2.1,0,.2.1.2.1,0,0,.1-.1.2-.2.2-.2.3-.2.3-.3,0,0,.1,0,.1-.1h0c0-.1-.1-.2-.2-.3-.1-.1-.2-.3-.4-.3-.1,0-.3,0-.4,0h-.5c0-.1-.1-.1-.1-.2s0-.1.2-.2c0,0,.2-.2.3-.2.1,0,.2-.1.4-.1.1,0,.3,0,.3,0q0,0,.1,0h0c.1.3.3.4.5.6h-.2ZM31.7,57.5l.9,1.3c0,0,0,.1,0,.2,0,0,0,.1-.2.2,0,0-.2,0-.3,0h-.1c0,0-.2,0-.3,0-.1,0-.3.1-.6.3l-.4.2c-.3.2-.5.3-.6.4,0,0-.1.1-.1.2h0v.2h0c0,.1,0,.1-.1.2-.1,0-.2,0-.4,0-.1-.1-.3-.3-.5-.5-.2-.3-.2-.5-.3-.6,0-.2,0-.3.1-.3,0,0,.2,0,.3,0h.3s.1-.1.3-.2c.1,0,.3-.2.5-.3l.3-.2c.2-.1.3-.2.4-.3.1,0,.2-.1.2-.1h0c0-.2,0-.2-.1-.3-.1-.1-.2-.2-.3-.3h-.4c-.2,0-.2,0-.3,0,0,0,0-.2,0-.3,0-.1.1-.2.2-.2.1,0,.2-.1.4-.2h.6c0,0,.1,0,.2.1h0c.1.2.2.4.3.5h0ZM43.8,36.5c0,.2,1.4.3,1.4.1v-.7s.7,0,1-.2v-.5c-.7-.4-2.1-1-3-1.8-1.2-.3-2.8-.2-2.7.7,0,.5,4.6.6,3.3,1.3v1.1h0ZM48.1,35.2c-.5,0-1.1.1-1.4.7-.1.2-.1.7.4.5.6-.2,1.8,0,2.3-.2,0-1,0-1.2-1.3-1.1h0ZM50.8,35.8c-.3,0-.7.2-.9.2v.5h1.2c0,0,0-.7-.4-.7h0ZM71.3,41.7c.3-1.4,1.3-5.1,1.1-6.3-.1-.4-.6-.2-.9,0,.1,1.8-.6,5-1.3,5.9.7-1.9,1-3.9,1.1-6-.3-.2-1-.2-1,.1-.1,2.6-1.4,8.1-2.8,10.1,2,.3,3.2-1.5,3.9-3.9h0ZM73.7,43.8c.6-1.7,1.3-4.7,1.6-8.4-.2-.6-1.2-.5-1.4.2.1,2.4-.2,5-.8,6.2.5-2.6.3-4.5.3-6.5-.2-.2-.6,0-.8.2.3,3.3-1.1,10.9-3.1,13.7.8.6,3.5-2.4,4.3-5.5h0ZM77.1,44.7c.7-1.5.8-5.1,1.1-8.7-.2-1-1.1-1-1.3,0,.5,2.1-.4,4.4-.6,8.2-.4-4,.9-5.6.3-8.3-.3-.8-.9-.7-.9.2.1.9-.2,2.7-.7,3.9,0,1.3,0,3.6-.6,4.7.5,2.1-.6,5.6-1.5,6.9.6,2,3.8-4.3,4.3-6.9h0ZM80.3,48.5c.7-1.5.6-8.1.6-11.7-.3-1.3-1.2-1.5-1.3,0,0,4.4-.1,12.6-.6,11.7.2-2.3.5-8.5.3-11.8,0-1.3-1.2-1.2-.9.1-.1.8-.2,3.6-.2,5-1.2,3.9-.5,4.8-.8,6,.5,2.2.2,6.2,0,7.8.8,2,2.8-4.6,3-7.2h0ZM65.3,38.5c-1.3,2.6-3.3,7.1-1.7,10.6.7,1.1,1.7,1.2,2.5,1.3,1.1-.3,2.2-.9,1.9-2.6.1-.3-1-1.3-1.4-1-.4,0-1.1.4-1.3,1-1.9-3.9,4.2-9.7,2.7-18.5-.5-2.5-3-5.1-4.5-5.1v1.4c2.7,1.2,5,6.1,1.8,12.8h0ZM75.1,33.7c0-1.3.2-3.1,0-4.1-.3-.4-.6-.3-.9.2,0,1-.1,2.3-.3,3-.2-.7-.3-2.3,0-3-.2-.6-.5-.6-.9,0,0,.3-.1,1.8-.1,2.4v1.5c0,1.1,2.1.9,2.1,0h0ZM77.9,32.8v-3.4c-.2-.4-1,0-1.1.1-.3.9,0,3.1-.4,3.2-.3,0,0-2.3-.1-3.4-.4-.3-.9-.1-.9.4,0,.7-.1,1.8,0,3.7.4,2.6,2.7,1,2.5-.7h0ZM78.2,32.7c-.3,3.5,3.1,2.7,2.6.2v-3.9c-.3-.4-.6-.4-.9,0v3.5c0,1.2-1,1.2-1,0,.1-2.3,0-1.7,0-3.4-.3-.4-.7-.3-.7,0,0,.6,0,2.4-.1,3.6h.1ZM73,29.8c-.3-.2-.9-.1-1,.4,0,.4-.1.8-.2,1.4-.2-.3-.3-1-.3-1.7-.3-.2-.6-.2-.9.1v2.3c.1,2.8,2.1,2,2.1.2,0-.6.2-1.9.2-2.7h0ZM70.2,32.9c0-.5.1-2.3.1-2.9-.2,0-.7-.2-.9.3-.1.4.1,1.5,0,1.9-.3-.7-.1-1.9-.4-1.9,0-.2-.4,0-.4.5s.1,2.1.2,2.6c.3.8,1.3.6,1.5-.5h0ZM84.8,35.7c-1,.2-1.6.6-1.6,1.3.7,5-.3,10.5-1.6,14.8-.2-1.4,1.4-9.4,1-13.5.4-1.4-.3-2.6-1.1-2.4.5,5.6-.4,12.9-.8,17.4-.1,1.5-1.5,7.5-1.9,8.9,1.3,0,3.2-4.7,4.2-9.5,1.5-4.3,2-8.9,2-10.1.3-.5.2-7-.2-7h0ZM83,36c.9.1,1.5-.6,1.7-.9.3-1.7.2-4.7.2-6.7-.4-.2-1,0-1.2.9.3,2,.2,3.9,0,4.7-.2.5-1.1.3-1.1-.2-.2-.5-.3-2.1-.2-4.7-.4-.5-.8-.5-1.1-.2-.6,5.8-.2,6.6,1.7,7h0ZM82.6,29.5c.2-.2.4-.3.6,0,0,1.4,0,2.8-.1,4.2-.1.6-.5,0-.4-.3-.2-1.3-.1-2.5-.1-3.8h0ZM79.3,29.5c.1-.2.3-.2.4,0,0,1.1,0,2.2,0,3.2-.1.5-.3,0-.3-.2-.1-1-.1-2-.1-2.9h0ZM16.4,41.3c-.3-1.4-1.3-5.3-1-6.4.1-.4.5-.3.8,0-.2,1.8-.1,3.9.6,4.8-.7-1.9-.2-3-.2-5.2.3-.1.8-.2.9,0-.2,2.8.4,9.5,1.9,11.6-2.1.2-2.3-2.5-3-4.8h0ZM13.5,44.6c-.7-1.7-.6-5.4-1-9.1.2-.7.9-.5,1.1.1-.1,2.4.1,5.4.8,6.7-.5-2.7-.3-4.6-.4-6.7-.3-.2,0-1.4,1-.6,0,2,.4,5.2.5,6.8,1.5,1.7.8,6.6,1.5,7.6-.8.6-2.6-1.8-3.5-4.8h0ZM3.9,35.8c-1,0-1.5-1.7-1.6-1.9-.1-1.8.1-5.6.3-7.7.4-.2,1.1-.8,1.2.2-.5,2.2-.6,5.9-.7,6.5,0,2.3,1.4,2.1,1.5-.2,0-.4.5-2.8.6-5.5.5-.5.5,0,.8.5-.6,7.7-.4,8.5-2.1,8.1h0ZM8.3,27.4c-.1,0-.3-.1-.4-.1-.2,1.9-.4,3.8-.4,5.7,0,.9.4,0,.3-.4.3-1.8.4-3.5.5-5.2h0ZM4.8,26.8c-.3-.2-.4-.4-.7,0-.1,2.1-.6,4.4-.4,6.4.2.9.5-.5.4-.9.1-1.9.7-3.5.7-5.4h0ZM3.8,17.4c.3.9.1,1.9-.6,2-.7-2.6.6-3.6.6-2h0ZM4.8,25.1c.3,0,.9-1.4,1-1.4.1,0-1,3.2.6,1.8.1-.3.3-1,.3-1.3.4-2-1.9-2.8-2.8-1.1-.2.3-.9,1.8-.1,2,.2,0,.9-1.6,1-1.6.5,0-.5,1.4,0,1.7h0ZM9.9,25.1c.3-1.4-2-2.4-2.6-.4-.4,1.1-.4,1.4,0,1.5.3,0,.6-1.2.9-1.2-.2.8-.1,1.3.1,1.4.4.1.5-1.2.6-1.3v1.5c.2.2.5,0,.7,0,.1-.6.3-1.2.2-1.6h0ZM10.1,25.8c0,.9-.2,1.8.6,1.5l.2-.7.2.7c.1.1.3.1.4,0,0,0,.2-.9.4-.9s.2.8.3.8c.7,0,.6-.7.7-1.5-.1-1.4-2-2.7-2.7.1h0ZM15.3,26.7c0,.7-.4,1.8-.5,1.3v-.9c0,0-.3.8-.3.8-.1.1-.4,0-.5,0,0,0,0-.7-.1-.7-.2,0-.2.7-.3.7-.6,0-.5-.5-.6-1.2,0-1.7,2.6-2.2,2.3,0h-.1ZM15.4,26.9c0,.6-.3,1.3.3,1.2l.2-.5v.5c.1.1.3.2.4,0,0,0,.3-.6.3-.6.2,0,0,.6.1.6.5.1.5-.4.6-1.1,0-1.1-1.2-2.2-2-.3h0ZM20,27.9c0,.6.2,1.1-.6,1l-.2-.4-.2.4c-.1.1-.2.1-.3,0,0,0-.2-.5-.3-.5-.2,0-.2.5-.2.5-.6,0-.6-.4-.6-1,0-.9,1.8-1.7,2.4,0h0ZM9,32c0,5.4-3.5,4.3-2.8,0,.2-1.3.4-3.4.5-4.8.3-.4.5-.2.8.3,0,.7-.4,5.2-.4,5.5,0,1.3.8,1.5,1,.2,0-2.4.4-3.6.5-5.4.2-.4.7,0,.7.2,0,.6-.2,2.8-.3,3.9h0ZM9.2,32.2c.1-1.1.2-2.8.3-3.9.3-.5.6-.5.9.1-.1,1.1-.5,4.7,0,4.8.6.7.8-3.8,1-4.8.3-.3.8-.1.8.4,0,.9-.2,2.4-.3,4.4-1,3.8-3.1,1.4-2.6-.9h0ZM12.3,33.2c0-1.3,0-3.2.3-4.3.3-.4.3-.3.5.1-.1,1-.5,4,0,3.8.7.4,1.2-2.9,1-3.7.3-.5.4-.6.9,0,0,.4-.1,1.7,0,2.3-.2.7-.2,1.3-.2,1.7-.4,1.4-3,1.4-2.5-.1h0ZM15.2,29.6c.2-.1.8-.4.7,0,0,.3-.3,2.9.4,3.2.7-.4.4-2.7.5-3.4.3-.2.5-.1.7.2,0,.7,0,2,0,2.6-.3,2.8-2.5,1.4-2.5-.4s.2-1.5.2-2.3h0ZM17.9,33.1c0-.5-.1-2.4,0-3.2.1,0,.5-.2.6.1.1.5,0,1.6.1,2,.6,0,.2-2,.6-1.9,0-.2.4,0,.4.6,0,.9,0,1.8-.2,2.3-.3.4-1.3,1-1.5.1h0ZM2,36.7c1,.3,1.4.7,1.3,1.4-.8,5.2.4,12.7,1.5,15.2.2-1.5-1.4-11.6-.6-15.8.5-.8.7-.6,1.5-.4-1.3,6.2,1.8,13.3.6,16.4.2,1.3,1,6.8.7,8.4-1.1,0-2.7-4.1-3.8-9.3-1.2-4.6-1.5-8.3-1.3-9.6-.3-.6-.3-6.5,0-6.3h0ZM7.4,49c-.8-1.5-.7-8-1.1-11.8.1-1.3,1.2-1.6,1.5-.1.3,4.4,1,14.7,1.5,13.8-.4-2.3-.9-10.6-1-13.9-.2-1.3,1.5-1.3,1.3,0,.2.8.5,5.4-.1,6.4,1.7,3.8.3,4.2.7,5.4,1.2,2.5.2,4.4.6,6.1-.6,2.1-2.8-3.4-3.2-5.9h0ZM10.6,45.2c-.9-1.4-.2-5.2-.8-8.9.2-.6.7-.8,1-.1-.4,2.2,0,4.1.6,8,0-4.1-.5-5.3-.2-8.1.2-.9.9-.8,1,0,0,.9-.2,2.4.4,3.6,0,1.1-.4,3,.4,5.7.7,2.2.4,4.3.7,5.5-2.2-1.1-2.4-3.2-3.1-5.9h0ZM19.5,36.3c.1,1.4.1,4.1.3,6-1,.1-1.2-3.7-1.7-3.7-.2-1.4-.6-2.8-.2-4.3.3,0,.2,1.1.5,1.8,0-1.9.7-2.9,1.1.2h0ZM83.6,16.7c.3-.1.7,0,1.1.2,0,.7-.4,1.3-.6,1.9-.3-.3-.5-1-.5-2.1h0ZM69,27.9c0-.2-.8-.1-.8,0,0,1,.3,2.3,1.9,1.6.5-.4.2-1.7.1-2,.2-.2-.6,0-.7.2.2.2-.4,1.3-.5.2h0ZM71.3,27.3c0-.2-.8,0-.8.2,0,1.2.3,2.6,2,1.7.5-.4.2-2,.1-2.3.1-.2-.6,0-.7.2.3.8-.4,2.1-.5.2h0ZM73.7,26.6c0-.3-.7,0-.7.2,0,1.3.3,2.8,1.8,1.9.4-.5.2-2.2.1-2.6.1-.2-.6,0-.6.2.2,1-.3,2.4-.5.3h0ZM75.9,25.5c0-.2-.7,0-.7.3,0,1.8,0,3.8,2.1,2.6.6-.6.2-3.1,0-3.7.2-.3-.6.2-.7.5.3,1.4-.4,3.5-.7.3h0ZM78.6,24.1c0-.3-1.1-.1-1,.4.2,2.7.2,5.2,2.9,3.5.7-.8.2-4.2.2-5.1.3-.4-.9.2-1.1.7.5,2.1-.6,5.2-1,.5h0ZM82,22.5s-.9.1-.9.4c0,2.7-.1,6.5,3.2,4.5.7-.8.2-4,.2-4.9.3-.4-.9-1-1.1-.5.5,4.1-1.1,7.7-1.4.5h0ZM22.9,36.3c0-2.8-.6-2.6-1.2-2.1.1.6,0,2.4.2,2.4.5,0,.4-.3,1-.3h0ZM64.9,36c0-2.8-.6-2.6-1.2-2.1.1.6,0,2.4.2,2.4.5,0,.4-.3,1-.3h0ZM66.2,33.9c-.8-.6-.6-.3-1.3,0,0,.6.3,2.2.5,2.2.5-.3.5-1.5.7-2.2h0ZM64.8,32.1c0-3.5-2.1-2.2-1,1.2.8.5,2,0,2.5-.3.5-3.4-1.4-4.4-1-1,0,.2-.6-.3-.6.1h0ZM63.6,26.8c0,1-.2,2,.2,2.6.7-.5,1-.5,1.7-.6.1-.6-1.4-2.1-1.9-1.9h0ZM63.6,37.7v-.9c.5-.4,1.1-.5,1.7-.4v.7c-.5.4-1.1.5-1.7.5h0ZM68.1,37.4c0,1.3-.3,3.3-.3,5,1,0,1.2-3,1.5-3,.1-1.3.7-2.4.2-3.6-.2,0-.4.7-.6,1.4-.3-1.4-.7-1.4-.7.3h0ZM16.5,53c-1.3-1.2-4.6-1.5-4.9.5,0,.6,1.7.2,1.8.2.4.4-2.3.6-1.9,2,1,.2,7.3-1.3,3.8,4.5,3.7.1,3.6-3.4,3-5.7,1.5-1.3,4.7-3.5,4.3-3.9-1.1.5-2.1.6-3.1.1-.5.3-2.2,1.9-3,2.3h0ZM23.7,54.7h.3c.1-1.8-.3-3-1.7-2.7,0,1.3.6,2.7,1.3,2.7h0ZM55.6,9.9c0,.3,0,.6.2.9.7.5,1.2.6,1,.3-.8-.4-.7-1.3-1.2-1.1h0Z"/>
  <g>
    <path class="st1" d="M100.4,24.5h3.1v8.9c0,1,.1,1.7.4,2.2.4.8,1.2,1.2,2.4,1.2s2-.4,2.4-1.2c.2-.5.4-1.2.4-2.2v-8.9h3.1v8.9c0,1.5-.3,2.8-.7,3.6-.9,1.6-2.6,2.4-5.1,2.4s-4.2-.8-5.1-2.4c-.5-.9-.7-2.1-.7-3.6v-8.9h0Z"/>
    <path class="st1" d="M114.9,24.5h3.2l5.8,10.2v-10.2h2.8v14.5h-3l-5.9-10.3v10.3h-2.8v-14.5h0Z"/>
    <path class="st1" d="M132.3,39.1h-3v-14.5h3v14.5Z"/>
    <path class="st1" d="M143.7,24.5h3.1l-5,14.5h-2.9l-4.9-14.5h3.2l3.1,11.1,3.2-11.1h0Z"/>
    <path class="st1" d="M159.4,27.1h-7.7v3.1h7.1v2.5h-7.1v3.7h8v2.6h-11v-14.5h10.6v2.6h0Z"/>
    <path class="st1" d="M171.5,24.9c.5.2,1,.6,1.4,1,.3.4.5.8.7,1.2.2.4.3,1,.3,1.5s-.2,1.4-.5,2-.9,1.1-1.7,1.4c.7.3,1.2.6,1.4,1.2.3.5.4,1.3.4,2.3v1c0,.6,0,1.1.1,1.3.1.4.3.6.6.9v.4h-3.4c-.1-.3-.2-.6-.2-.8,0-.4-.1-.9-.1-1.3v-1.3c0-.9-.2-1.5-.5-1.9-.3-.3-.9-.5-1.8-.5h-3v5.7h-3v-14.5h7c1,0,1.8.2,2.3.4h-.1ZM165.2,27.1v3.9h3.2c.6,0,1.1,0,1.4-.2.6-.3.9-.8.9-1.7s-.3-1.5-.9-1.8c-.3-.2-.8-.3-1.4-.3h-3.4,0Z"/>
    <path class="st1" d="M178.9,34.6c.1.6.3,1.2.5,1.5.5.6,1.4.9,2.6.9s1.3,0,1.8-.2c.9-.3,1.3-.9,1.3-1.7s-.2-.9-.6-1.1c-.4-.3-1.1-.5-2-.7l-1.6-.3c-1.5-.3-2.6-.7-3.2-1.1-1-.7-1.5-1.7-1.5-3.1s.5-2.4,1.4-3.2c1-.9,2.3-1.3,4.2-1.3s2.9.4,4,1.2,1.7,2,1.7,3.5h-2.9c0-.9-.4-1.5-1.2-1.9-.5-.3-1.1-.4-1.8-.4s-1.4.2-1.9.5c-.5.3-.7.7-.7,1.3s.2.9.7,1.2c.3.2,1,.4,1.9.6l2.6.6c1.1.3,2,.6,2.5,1.1.9.7,1.3,1.7,1.3,3s-.5,2.4-1.5,3.3c-1,.9-2.5,1.3-4.4,1.3s-3.4-.4-4.5-1.3-1.7-2.1-1.7-3.6h3Z"/>
    <path class="st1" d="M193,39.1h-3v-14.5h3v14.5Z"/>
    <path class="st1" d="M204.4,24.9c1,.3,1.9,1,2.5,1.9.5.7.9,1.5,1,2.3s.3,1.7.3,2.4c0,1.9-.4,3.6-1.2,4.9-1.1,1.8-2.7,2.7-4.9,2.7h-6.3v-14.5h6.3c.9,0,1.7.1,2.2.3h0ZM198.8,27.1v9.5h2.8c1.4,0,2.4-.7,3-2.1.3-.8.5-1.7.5-2.8s-.2-2.6-.7-3.4-1.4-1.2-2.8-1.2h-2.8Z"/>
    <path class="st1" d="M214.6,24.5h3.5l5.2,14.5h-3.3l-1-3h-5.4l-1,3h-3.2l5.2-14.5h0ZM214.4,33.6h3.7l-1.9-5.7-1.9,5.7Z"/>
    <path class="st1" d="M233.6,24.9c1,.3,1.9,1,2.5,1.9.5.7.9,1.5,1,2.3.2.9.3,1.7.3,2.4,0,1.9-.4,3.6-1.2,4.9-1.1,1.8-2.7,2.7-4.9,2.7h-6.3v-14.5h6.3c.9,0,1.7.1,2.2.3h0ZM228,27.1v9.5h2.8c1.4,0,2.4-.7,3-2.1.3-.8.5-1.7.5-2.8s-.2-2.6-.7-3.4-1.4-1.2-2.8-1.2h-2.8Z"/>
    <path class="st1" d="M245.2,24.5h3.2l5.8,10.2v-10.2h2.8v14.5h-3l-5.9-10.3v10.3h-2.8v-14.5h0Z"/>
    <path class="st1" d="M264,24.5h3.5l5.2,14.5h-3.3l-1-3h-5.4l-1,3h-3.2l5.2-14.5h0ZM263.8,33.6h3.7l-1.9-5.7-1.9,5.7Z"/>
    <path class="st1" d="M275.8,26.1c1.2-1.2,2.7-1.8,4.5-1.8s4.2.8,5.3,2.4c.6.9,1,1.8,1,2.7h-3c-.2-.7-.4-1.2-.7-1.6-.5-.6-1.3-1-2.4-1s-1.9.4-2.6,1.3c-.6.9-1,2.1-1,3.8s.3,2.9,1,3.7c.6.8,1.5,1.2,2.5,1.2s1.9-.4,2.4-1.1c.3-.4.5-1,.7-1.7h3c-.3,1.6-.9,2.9-2,3.9-1.1,1-2.4,1.5-4.1,1.5s-3.7-.7-4.9-2c-1.2-1.3-1.8-3.2-1.8-5.5s.7-4.5,2-5.9h0Z"/>
    <path class="st1" d="M291.8,39.1h-3v-14.5h3v14.5Z"/>
    <path class="st1" d="M305.9,37.8c-1.1,1.1-2.7,1.7-4.8,1.7s-3.7-.6-4.8-1.7c-1.5-1.4-2.2-3.4-2.2-6s.7-4.7,2.2-6c1.1-1.1,2.7-1.7,4.8-1.7s3.7.6,4.8,1.7c1.5,1.3,2.2,3.4,2.2,6s-.7,4.6-2.2,6ZM303.9,35.6c.7-.9,1.1-2.1,1.1-3.8s-.4-2.9-1.1-3.8c-.7-.9-1.7-1.3-2.9-1.3s-2.2.4-2.9,1.3c-.7.9-1.1,2.1-1.1,3.8s.4,2.9,1.1,3.8c.7.9,1.7,1.3,2.9,1.3s2.2-.4,2.9-1.3Z"/>
    <path class="st1" d="M310.3,24.5h3.2l5.8,10.2v-10.2h2.8v14.5h-3l-5.9-10.3v10.3h-2.8v-14.5h0Z"/>
    <path class="st1" d="M329.1,24.5h3.5l5.2,14.5h-3.3l-1-3h-5.4l-1,3h-3.2l5.2-14.5h0ZM329,33.6h3.7l-1.9-5.7-1.9,5.7Z"/>
    <path class="st1" d="M339.6,24.5h3v11.9h7.2v2.6h-10.3v-14.5h0Z"/>
    <path class="st1" d="M104.5,48.8h3.5l5.2,14.5h-3.3l-1-3h-5.4l-1,3h-3.2l5.2-14.5ZM104.3,57.9h3.7l-1.9-5.7-1.9,5.7Z"/>
    <path class="st1" d="M115.8,48.8h3.1v8.9c0,1,.1,1.7.4,2.2.4.8,1.2,1.2,2.4,1.2s2-.4,2.4-1.2c.2-.5.4-1.2.4-2.2v-8.9h3.1v8.9c0,1.5-.3,2.8-.7,3.6-.9,1.6-2.6,2.4-5.1,2.4s-4.2-.8-5.1-2.4c-.5-.9-.7-2.1-.7-3.6v-8.9Z"/>
    <path class="st1" d="M141.9,48.8v2.6h-4.4v12h-3v-12h-4.4v-2.6h11.8Z"/>
    <path class="st1" d="M155.7,62.1c-1.1,1.1-2.7,1.7-4.8,1.7s-3.7-.6-4.8-1.7c-1.5-1.4-2.2-3.4-2.2-6s.7-4.7,2.2-6c1.1-1.1,2.7-1.7,4.8-1.7s3.7.6,4.8,1.7c1.5,1.3,2.2,3.4,2.2,6s-.7,4.6-2.2,6ZM153.8,59.8c.7-.9,1.1-2.1,1.1-3.8s-.4-2.9-1.1-3.8-1.7-1.3-2.9-1.3-2.2.4-2.9,1.3-1.1,2.1-1.1,3.8.4,2.9,1.1,3.8c.7.9,1.7,1.3,2.9,1.3s2.2-.4,2.9-1.3ZM154.3,44.2l-3,2.9h-2l1.9-2.9h3.1,0Z"/>
    <path class="st1" d="M161,48.8h3.2l5.8,10.2v-10.2h2.8v14.5h-3l-5.9-10.3v10.3h-2.8v-14.5h0Z"/>
    <path class="st1" d="M187.8,62.1c-1.1,1.1-2.7,1.7-4.8,1.7s-3.7-.6-4.8-1.7c-1.5-1.4-2.2-3.4-2.2-6s.7-4.7,2.2-6c1.1-1.1,2.7-1.7,4.8-1.7s3.7.6,4.8,1.7c1.5,1.3,2.2,3.4,2.2,6s-.7,4.6-2.2,6ZM185.9,59.8c.7-.9,1.1-2.1,1.1-3.8s-.4-2.9-1.1-3.8-1.7-1.3-2.9-1.3-2.2.4-2.9,1.3-1.1,2.1-1.1,3.8.4,2.9,1.1,3.8c.7.9,1.7,1.3,2.9,1.3s2.2-.4,2.9-1.3Z"/>
    <path class="st1" d="M202.8,48.8h4.4v14.5h-2.8v-12.2l-2.8,12.2h-3l-2.7-12.2v12.2h-2.8v-14.5h4.4l2.7,11.4,2.6-11.4h0Z"/>
    <path class="st1" d="M215.1,48.8h3.5l5.2,14.5h-3.3l-1-3h-5.4l-1,3h-3.2l5.2-14.5h0ZM214.8,57.9h3.7l-1.9-5.7-1.9,5.7Z"/>
    <path class="st1" d="M240.6,49.1c1,.3,1.9,1,2.5,1.9.5.7.9,1.5,1,2.3.2.9.3,1.7.3,2.4,0,1.9-.4,3.6-1.2,4.9-1.1,1.8-2.7,2.7-4.9,2.7h-6.3v-14.5h6.3c.9,0,1.7.1,2.2.3h0ZM235,51.3v9.5h2.8c1.4,0,2.4-.7,3-2.1.3-.8.5-1.7.5-2.8s-.2-2.6-.7-3.4-1.4-1.2-2.8-1.2h-2.8Z"/>
    <path class="st1" d="M258.3,51.4h-7.7v3.1h7.1v2.5h-7.1v3.7h8v2.6h-11v-14.5h10.6v2.6h0Z"/>
    <path class="st1" d="M278,48.8h4.4v14.5h-2.8v-12.2l-2.8,12.2h-3l-2.7-12.2v12.2h-2.8v-14.5h4.4l2.7,11.4,2.6-11.4h0Z"/>
    <path class="st1" d="M296.9,51.4h-7.7v3.1h7.1v2.5h-7.1v3.7h8v2.6h-11v-14.5h10.6v2.6h0ZM295,44.7l-3,2.9h-2l1.9-2.9h3.1,0Z"/>
    <path class="st1" d="M302.8,63.3h-3.5l4.7-7.4-4.5-7.1h3.6l2.6,4.7,2.7-4.7h3.5l-4.5,7,4.7,7.6h-3.7l-2.8-5-2.9,5h0Z"/>
    <path class="st1" d="M317.6,63.3h-3v-14.5h3v14.5Z"/>
    <path class="st1" d="M322.7,50.3c1.2-1.2,2.7-1.8,4.5-1.8s4.2.8,5.3,2.4c.6.9,1,1.8,1,2.7h-3c-.2-.7-.4-1.2-.7-1.6-.5-.6-1.3-1-2.4-1s-1.9.4-2.6,1.3-1,2.1-1,3.8.3,2.9,1,3.7c.6.8,1.5,1.2,2.5,1.2s1.9-.4,2.4-1.1c.3-.4.5-1,.7-1.7h3c-.3,1.6-.9,2.9-2,3.9-1.1,1-2.4,1.5-4.1,1.5s-3.7-.7-4.9-2c-1.2-1.3-1.8-3.2-1.8-5.5s.7-4.5,2-5.9h0Z"/>
    <path class="st1" d="M348,62.1c-1.1,1.1-2.7,1.7-4.8,1.7s-3.7-.6-4.8-1.7c-1.5-1.4-2.2-3.4-2.2-6s.7-4.7,2.2-6c1.1-1.1,2.7-1.7,4.8-1.7s3.7.6,4.8,1.7c1.5,1.3,2.2,3.4,2.2,6s-.7,4.6-2.2,6ZM346.1,59.8c.7-.9,1.1-2.1,1.1-3.8s-.4-2.9-1.1-3.8-1.7-1.3-2.9-1.3-2.2.4-2.9,1.3c-.7.9-1.1,2.1-1.1,3.8s.4,2.9,1.1,3.8c.7.9,1.7,1.3,2.9,1.3s2.2-.4,2.9-1.3Z"/>
  </g>
</svg>